<svg xmlns="http://www.w3.org/2000/svg" xmlns:xlink="http://www.w3.org/1999/xlink" width="1000" height="1000" viewBox="0 0 1000 1000"><defs><clipPath id="b"><rect width="1000" height="1000"/></clipPath></defs><g id="a" clip-path="url(#b)"><rect width="1000" height="1000" rx="100" fill="#fff400"/><g transform="translate(-23 186.548)"><g transform="translate(762.211 147.332)"><g transform="translate(0 0)"><path d="M0,0H50.586V334.66H0Z" transform="translate(0.101)" fill="none"/><g transform="translate(0 8.094)"><path d="M42.772,318.477H8.017V107.959H42.772V318.477ZM25.394,51.285c-7.393,0-13.537-2.42-18.262-7.193S0,33.106,0,25.649a25.255,25.255,0,0,1,7.351-18A24.172,24.172,0,0,1,25.394,0,24.134,24.134,0,0,1,43.438,7.653a25.213,25.213,0,0,1,7.351,18c0,7.441-2.4,13.646-7.121,18.443C38.931,48.865,32.783,51.285,25.394,51.285Z" fill="#010202"/></g></g></g><path d="M390.729,0,316.479,268.2h-.906L237.245,0H194.687L115.906,268.2H115L42.1,0H0L93.721,322.93h41.657L215.06,49.265h.906L295.2,322.93h41.2L430.573,0Z" transform="translate(234 145.609)" fill="#010202"/></g></g></svg>