<?xml version="1.0" encoding="utf-8"?>
<!-- Generator: Adobe Illustrator 24.2.1, SVG Export Plug-In . SVG Version: 6.00 Build 0)  -->
<svg version="1.1" id="Layer_1" xmlns="http://www.w3.org/2000/svg" xmlns:xlink="http://www.w3.org/1999/xlink" x="0px" y="0px"
	 viewBox="0 0 829.3 118.5" style="enable-background:new 0 0 829.3 118.5;" xml:space="preserve">
<style type="text/css">
	.st0{clip-path:url(#SVGID_2_);}
	.st1{fill:none;}
	.st2{clip-path:url(#SVGID_4_);}
	.st3{fill:#FFFFFF;}
</style>
<g>
	<defs>
		<rect id="SVGID_1_" width="829.3" height="118.5"/>
	</defs>
	<clipPath id="SVGID_2_">
		<use xlink:href="#SVGID_1_"  style="overflow:visible;"/>
	</clipPath>
	<g id="b" class="st0">
		<g transform="translate(-234 -145.609)">
			<g transform="translate(420.174 146.216)">
				<g transform="translate(0 0)">
					<path class="st1" d="M0,0h643.1v117.9H0V0z"/>
					<g>
						<defs>
							<rect id="SVGID_3_" x="0" y="0" width="643.1" height="117.9"/>
						</defs>
						<clipPath id="SVGID_4_">
							<use xlink:href="#SVGID_3_"  style="overflow:visible;"/>
						</clipPath>
						<g class="st2">
							<path class="st3" d="M15.1,115.1H2.8V40.9h12.2V115.1z M8.9,20.9c-2.4,0.1-4.7-0.8-6.4-2.5c-1.7-1.7-2.6-4.1-2.5-6.5
								c0-2.4,0.9-4.7,2.6-6.3c1.6-1.8,4-2.7,6.4-2.7c2.4,0,4.7,0.9,6.4,2.7c1.7,1.7,2.6,4,2.6,6.3c0.1,2.4-0.8,4.8-2.5,6.5
								C13.7,20.1,11.4,21,8.9,20.9z"/>
							<path class="st3" d="M63.6,2.9h74.6v22.8H88.1v22.8h46.3v22.8H88.1v43.7H63.6V2.9z"/>
							<path class="st3" d="M180.2,2.9h75.5v22.8h-51v20.9h48.2v22.8h-48.2v22.8h53.9v22.8h-78.3V2.9z"/>
							<path class="st3" d="M323.3,24.7h-31.7V2.9h87.9v21.9h-31.7v90.4h-24.5V24.7z"/>
							<path class="st3" d="M488.1,32c-2.4-2.9-5.4-5.3-8.9-6.8c-3.8-1.7-8-2.5-12.2-2.4c-8.8-0.1-17.2,3.6-23,10.2
								c-3,3.4-5.3,7.3-6.8,11.5c-1.7,4.6-2.5,9.5-2.4,14.4c-0.1,4.9,0.8,9.9,2.4,14.5c1.5,4.2,3.8,8.1,6.7,11.4
								c2.8,3.2,6.2,5.7,10,7.5c3.9,1.8,8.1,2.7,12.3,2.7c4.6,0.1,9.2-1,13.3-3.2c3.9-2.1,7.2-5.2,9.6-8.9l20.4,15.4
								c-4.5,6.5-10.7,11.6-17.9,14.7c-7,3.1-14.6,4.7-22.3,4.8c-8.2,0.1-16.3-1.3-24-4.1c-7.1-2.6-13.5-6.6-19-11.8
								c-5.4-5.3-9.7-11.6-12.5-18.6c-3.1-7.8-4.6-16.1-4.5-24.4c-0.1-8.4,1.4-16.6,4.5-24.4c2.8-7,7.1-13.4,12.5-18.6
								c5.5-5.2,11.9-9.2,19-11.8c7.7-2.8,15.8-4.2,24-4.1c3.3,0,6.6,0.3,9.8,0.9c3.4,0.6,6.8,1.5,10,2.8c3.4,1.3,6.6,3,9.5,5.1
								c3.1,2.2,5.8,4.8,8.2,7.8L488.1,32z"/>
							<path class="st3" d="M546.5,2.9H571v41.8h47.6V2.9h24.5v112.2h-24.5V66.6H571v48.5h-24.5V2.9z"/>
						</g>
					</g>
				</g>
			</g>
			<path class="st3" d="M371.7,145.6l-26.2,94.5h-0.3l-27.6-94.5h-15l-27.8,94.5h-0.3l-25.7-94.5H234l33,113.8h14.7l28.1-96.4h0.3
				l27.9,96.4h14.5l33.2-113.8H371.7z"/>
		</g>
	</g>
</g>
</svg>
