<?xml version="1.0" encoding="utf-8"?>
<!-- Generator: Adobe Illustrator 24.3.0, SVG Export Plug-In . SVG Version: 6.00 Build 0)  -->
<svg version="1.1" id="Layer_1" xmlns="http://www.w3.org/2000/svg" xmlns:xlink="http://www.w3.org/1999/xlink" x="0px" y="0px"
	 viewBox="0 0 530.4 136.2" style="enable-background:new 0 0 530.4 136.2;" xml:space="preserve">
<style type="text/css">
	.st0{fill:#F3E44E;}
</style>
<rect class="st0" width="530.4" height="136.2"/>
<g>
	<path d="M36.3,37.2h8.1l14,51.1h0.2l15.1-51.1h8.2l15,51.1h0.2l14.3-51.1h7.6l-18.1,61.5H93L77.8,46.6h-0.2L62.3,98.8h-8L36.3,37.2
		z"/>
	<path d="M138,42.2c0-1.3,0.5-2.5,1.4-3.5c1-1,2.1-1.5,3.5-1.5c1.4,0,2.6,0.5,3.5,1.5c1,1,1.4,2.1,1.4,3.5c0,1.4-0.5,2.6-1.4,3.6
		c-0.9,0.9-2.1,1.4-3.6,1.4s-2.6-0.5-3.6-1.4C138.5,44.8,138,43.6,138,42.2z M139.6,58.1h6.8v40.7h-6.8V58.1z"/>
	<path d="M173.2,37.2h41.3v12.5h-27.7v12.5h25.6v12.5h-25.6v24h-13.6V37.2z"/>
	<path d="M237.8,37.2h41.8v12.5h-28.2v11.5h26.7v12.5h-26.7v12.5h29.8v12.5h-43.4V37.2z"/>
	<path d="M317,49.2h-17.6v-12h48.7v12h-17.6v49.5H317V49.2z"/>
	<path d="M408.3,53.2c-1.3-1.6-3-2.9-4.9-3.7s-4.2-1.3-6.7-1.3c-2.5,0-4.9,0.5-7.1,1.5c-2.2,1-4.1,2.4-5.7,4.1s-2.8,3.9-3.7,6.3
		s-1.3,5.1-1.3,7.9c0,2.9,0.4,5.5,1.3,8s2.1,4.5,3.7,6.3c1.6,1.8,3.4,3.1,5.5,4.1c2.1,1,4.4,1.5,6.8,1.5c2.8,0,5.2-0.6,7.4-1.7
		c2.1-1.2,3.9-2.8,5.3-4.9l11.3,8.4c-2.6,3.7-5.9,6.3-9.9,8.1s-8.1,2.6-12.3,2.6c-4.8,0-9.2-0.8-13.3-2.3s-7.6-3.7-10.5-6.5
		c-3-2.8-5.3-6.2-6.9-10.2c-1.7-4-2.5-8.5-2.5-13.4c0-4.9,0.8-9.4,2.5-13.4c1.7-4,4-7.4,6.9-10.2c3-2.8,6.5-5,10.5-6.5
		c4.1-1.5,8.5-2.3,13.3-2.3c1.7,0,3.5,0.2,5.4,0.5c1.9,0.3,3.7,0.8,5.6,1.5c1.8,0.7,3.6,1.6,5.3,2.8c1.7,1.2,3.2,2.6,4.5,4.3
		L408.3,53.2z"/>
	<path d="M440.6,37.2h13.6v22.9h26.3V37.2H494v61.5h-13.6V72.2h-26.3v26.6h-13.6V37.2z"/>
</g>
</svg>
