<?xml version="1.0" encoding="utf-8"?>
<!-- Generator: Adobe Illustrator 24.2.1, SVG Export Plug-In . SVG Version: 6.00 Build 0)  -->
<svg version="1.1" id="Layer_1" xmlns="http://www.w3.org/2000/svg" xmlns:xlink="http://www.w3.org/1999/xlink" x="0px" y="0px"
	 viewBox="0 0 73 11" style="enable-background:new 0 0 73 11;" xml:space="preserve">
<style type="text/css">
	.st0{fill-rule:evenodd;clip-rule:evenodd;fill:#FFF400;}
	.st1{fill:#EFEFEF;}
</style>
<path class="st0" d="M43.4,4.9c0-0.3-0.3-0.6-0.6-0.6h-1.6l-2.5-3.4c-0.2-0.3-0.7-0.4-1-0.2c-0.3,0.2-0.4,0.7-0.2,1l1.9,2.6h-5.5
	l1.9-2.6c0.2-0.3,0.2-0.8-0.2-1c-0.3-0.2-0.8-0.2-1,0.2L32,4.4h-1.6c-0.3,0-0.6,0.3-0.6,0.6v0.4c0,0.3,0.3,0.6,0.6,0.6h0.2l0.6,4.3
	c0.1,0.6,0.6,1,1.1,1h8.5c0.6,0,1-0.4,1.1-1l0.6-4.3h0.2c0.3,0,0.6-0.3,0.6-0.6V4.9z M37.2,9.1c0,0.3-0.3,0.6-0.6,0.6
	s-0.6-0.3-0.6-0.6V6.4c0-0.3,0.3-0.6,0.6-0.6s0.6,0.3,0.6,0.6V9.1z M39.8,9.1c0,0.3-0.3,0.6-0.6,0.6s-0.6-0.3-0.6-0.6V6.4
	c0-0.3,0.3-0.6,0.6-0.6s0.6,0.3,0.6,0.6V9.1z M34.6,9.1c0,0.3-0.3,0.6-0.6,0.6s-0.6-0.3-0.6-0.6V6.4c0-0.3,0.3-0.6,0.6-0.6
	s0.6,0.3,0.6,0.6V9.1z"/>
<rect x="53" y="4" class="st1" width="20" height="2"/>
<rect y="4" class="st1" width="20" height="2"/>
</svg>
