<svg xmlns="http://www.w3.org/2000/svg" xmlns:xlink="http://www.w3.org/1999/xlink" width="829.25" height="118.54" viewBox="0 0 829.25 118.54"><defs><clipPath id="a"><path d="M0,0H643.074V117.932H0Z" fill="none"/></clipPath><clipPath id="c"><rect width="829.25" height="118.54"/></clipPath></defs><g id="b" clip-path="url(#c)"><g transform="translate(-234 -145.609)"><g transform="translate(420.174 146.216)"><g transform="translate(0 0)"><path d="M0,0H643.074V117.932H0Z" fill="none"/><g clip-path="url(#a)"><path d="M15.073,112.23H2.825V38.044H15.073V112.23ZM8.949,18.073a8.7,8.7,0,0,1-6.435-2.535A8.887,8.887,0,0,1,0,9.038,8.9,8.9,0,0,1,2.59,2.7,8.518,8.518,0,0,1,8.949,0a8.5,8.5,0,0,1,6.358,2.7A8.885,8.885,0,0,1,17.9,9.038a8.914,8.914,0,0,1-2.509,6.5A8.722,8.722,0,0,1,8.949,18.073Z" transform="translate(0 2.852)" fill="#010202"/><path d="M0,0H74.576V22.827H24.494V45.651H70.808V68.478H24.494v43.749H0Z" transform="translate(63.583 2.853)" fill="#010202"/><path d="M0,0H75.519V22.827H24.494V43.749h48.2V66.576h-48.2V89.4h53.85v22.827H0Z" transform="translate(180.234 2.853)" fill="#010202"/><path d="M31.714,21.875H0V0H87.921V21.875H56.206v90.351H31.714Z" transform="translate(291.548 2.853)" fill="#010202"/><path d="M78.66,32.02a24.1,24.1,0,0,0-8.873-6.815A29.28,29.28,0,0,0,57.62,22.827a30.335,30.335,0,0,0-23,10.224,35.165,35.165,0,0,0-6.752,11.491,41.684,41.684,0,0,0-2.431,14.425,41.471,41.471,0,0,0,2.431,14.5,36.1,36.1,0,0,0,6.674,11.413,30.2,30.2,0,0,0,9.971,7.528,28.528,28.528,0,0,0,12.323,2.7,27.382,27.382,0,0,0,13.347-3.173,26.65,26.65,0,0,0,9.574-8.876l20.41,15.377a42.583,42.583,0,0,1-17.9,14.741,54.942,54.942,0,0,1-22.294,4.754,67.967,67.967,0,0,1-24.022-4.12A54.83,54.83,0,0,1,16.96,102,53.485,53.485,0,0,1,4.478,83.378,63.858,63.858,0,0,1,0,58.967a63.871,63.871,0,0,1,4.478-24.41A53.5,53.5,0,0,1,16.96,15.932,54.939,54.939,0,0,1,35.953,4.122,67.926,67.926,0,0,1,59.975,0a58.4,58.4,0,0,1,9.812.874A52.651,52.651,0,0,1,79.834,3.646a44.582,44.582,0,0,1,9.5,5.075A38.016,38.016,0,0,1,97.5,16.486Z" transform="translate(409.454 -0.001)" fill="#010202"/><path d="M0,0H24.5V41.847h47.57V0H96.557V112.227H72.065v-48.5H24.5v48.5H0Z" transform="translate(546.516 2.853)" fill="#010202"/></g></g></g><path d="M137.691,0,111.526,94.511h-.319L83.6,0h-15L40.845,94.511h-.319L14.837,0H0L33.027,113.8h14.68l28.08-96.438h.319l27.92,96.438h14.52L151.731,0Z" transform="translate(234 145.609)" fill="#010202"/></g></g></svg>