<?xml version="1.0" encoding="utf-8"?>
<!-- Generator: Adobe Illustrator 24.3.0, SVG Export Plug-In . SVG Version: 6.00 Build 0)  -->
<svg version="1.1" id="Layer_1" xmlns="http://www.w3.org/2000/svg" xmlns:xlink="http://www.w3.org/1999/xlink" x="0px" y="0px"
	 viewBox="0 0 530.4 172.7" style="enable-background:new 0 0 530.4 172.7;" xml:space="preserve">
<style type="text/css">
	.st0{fill:#F3E44E;}
</style>
<g>
	<path d="M113.6,147.4h1.3l3.3,11.7h0l3.3-11.7h1.6l3.3,11.7h0l3.3-11.7h1.3l-3.8,13.2h-1.5l-3.3-11.8h0l-3.3,11.8h-1.5L113.6,147.4
		z"/>
	<path d="M141.3,147.4h8.1v1.1h-6.8v4.7h6.4v1.1h-6.4v5.1h7.1v1.1h-8.4V147.4z"/>
	<path d="M173.9,147.4h4.1c1.1,0,2.1,0.1,2.9,0.4s1.5,0.6,2,1.1c0.5,0.4,0.9,0.9,1.3,1.4c0.3,0.5,0.5,1,0.7,1.5
		c0.1,0.5,0.2,0.9,0.3,1.3s0.1,0.7,0.1,0.8c0,0.2,0,0.4-0.1,0.8c0,0.4-0.1,0.8-0.3,1.3c-0.1,0.5-0.4,1-0.7,1.5s-0.7,1-1.3,1.4
		c-0.5,0.4-1.2,0.8-2,1.1s-1.8,0.4-2.9,0.4h-4.1V147.4z M175.1,159.5h2.5c0.9,0,1.7-0.1,2.4-0.3c0.8-0.2,1.4-0.6,2-1s1-1,1.3-1.7
		c0.3-0.7,0.5-1.5,0.5-2.5c0-0.9-0.2-1.8-0.5-2.5c-0.3-0.7-0.8-1.3-1.3-1.7s-1.2-0.8-2-1c-0.8-0.2-1.6-0.3-2.4-0.3h-2.5V159.5z"/>
	<path d="M195.4,154c0-1,0.2-1.9,0.5-2.8s0.8-1.6,1.4-2.2c0.6-0.6,1.3-1.1,2.2-1.4c0.8-0.3,1.8-0.5,2.8-0.5c1,0,1.9,0.2,2.8,0.5
		c0.8,0.3,1.6,0.8,2.2,1.4c0.6,0.6,1.1,1.3,1.4,2.2s0.5,1.8,0.5,2.8s-0.2,1.9-0.5,2.8c-0.3,0.9-0.8,1.6-1.4,2.2
		c-0.6,0.6-1.3,1.1-2.2,1.4c-0.8,0.3-1.8,0.5-2.8,0.5c-1,0-1.9-0.2-2.8-0.5c-0.8-0.3-1.6-0.8-2.2-1.4s-1.1-1.3-1.4-2.2
		C195.6,155.9,195.4,155,195.4,154z M196.6,154c0,0.8,0.1,1.6,0.4,2.3c0.3,0.7,0.6,1.3,1.1,1.8c0.5,0.5,1.1,0.9,1.8,1.2
		c0.7,0.3,1.5,0.4,2.3,0.4s1.6-0.1,2.3-0.4c0.7-0.3,1.3-0.7,1.8-1.2c0.5-0.5,0.9-1.1,1.1-1.8c0.3-0.7,0.4-1.5,0.4-2.3
		s-0.1-1.6-0.4-2.3c-0.3-0.7-0.6-1.3-1.1-1.8c-0.5-0.5-1.1-0.9-1.8-1.2c-0.7-0.3-1.5-0.4-2.3-0.4s-1.6,0.1-2.3,0.4s-1.3,0.7-1.8,1.2
		c-0.5,0.5-0.9,1.1-1.1,1.8C196.8,152.4,196.6,153.2,196.6,154z"/>
	<path d="M233.5,147.4h1.2v13.2h-1.2V147.4z"/>
	<path d="M249.6,148.5h-4.5v-1.1h10.3v1.1h-4.5v12.1h-1.2V148.5z"/>
	<path d="M279,147.4h7.9v1.1h-6.7v4.7h6.2v1.1h-6.2v6.3H279V147.4z"/>
	<path d="M297,154c0-1,0.2-1.9,0.5-2.8s0.8-1.6,1.4-2.2c0.6-0.6,1.3-1.1,2.2-1.4s1.8-0.5,2.8-0.5c1,0,1.9,0.2,2.8,0.5
		c0.8,0.3,1.6,0.8,2.2,1.4c0.6,0.6,1.1,1.3,1.4,2.2s0.5,1.8,0.5,2.8s-0.2,1.9-0.5,2.8c-0.3,0.9-0.8,1.6-1.4,2.2s-1.3,1.1-2.2,1.4
		c-0.8,0.3-1.8,0.5-2.8,0.5c-1,0-1.9-0.2-2.8-0.5s-1.6-0.8-2.2-1.4c-0.6-0.6-1.1-1.3-1.4-2.2C297.1,155.9,297,155,297,154z
		 M298.2,154c0,0.8,0.1,1.6,0.4,2.3c0.3,0.7,0.6,1.3,1.1,1.8c0.5,0.5,1.1,0.9,1.8,1.2c0.7,0.3,1.5,0.4,2.3,0.4s1.6-0.1,2.3-0.4
		c0.7-0.3,1.3-0.7,1.8-1.2c0.5-0.5,0.9-1.1,1.1-1.8c0.3-0.7,0.4-1.5,0.4-2.3s-0.1-1.6-0.4-2.3c-0.3-0.7-0.6-1.3-1.1-1.8
		c-0.5-0.5-1.1-0.9-1.8-1.2s-1.5-0.4-2.3-0.4s-1.6,0.1-2.3,0.4c-0.7,0.3-1.3,0.7-1.8,1.2c-0.5,0.5-0.9,1.1-1.1,1.8
		C298.3,152.4,298.2,153.2,298.2,154z"/>
	<path d="M321.8,147.4h3.5c0.2,0,0.4,0,0.7,0s0.6,0,1,0.1c0.3,0.1,0.7,0.2,1.1,0.3c0.4,0.1,0.7,0.3,1,0.6c0.3,0.3,0.5,0.6,0.7,1
		s0.3,0.9,0.3,1.5c0,0.6-0.1,1.2-0.3,1.6c-0.2,0.4-0.5,0.7-0.8,1s-0.7,0.4-1.1,0.6c-0.4,0.1-0.8,0.2-1.1,0.3l3.8,6.3H329l-3.7-6.3
		H323v6.3h-1.2V147.4z M323,153.2h2.6c0.6,0,1.2-0.1,1.6-0.2s0.7-0.4,0.9-0.6c0.2-0.2,0.4-0.5,0.5-0.8s0.1-0.5,0.1-0.7
		c0-0.2,0-0.5-0.1-0.7c-0.1-0.3-0.2-0.5-0.5-0.8c-0.2-0.2-0.5-0.4-0.9-0.6c-0.4-0.2-0.9-0.2-1.6-0.2H323V153.2z"/>
	<path d="M357.4,154.9l-4.9-7.5h1.5l4,6.3l4.1-6.3h1.4l-4.9,7.5v5.7h-1.2V154.9z"/>
	<path d="M372.7,154c0-1,0.2-1.9,0.5-2.8s0.8-1.6,1.4-2.2c0.6-0.6,1.3-1.1,2.2-1.4s1.8-0.5,2.8-0.5c1,0,1.9,0.2,2.8,0.5
		c0.8,0.3,1.6,0.8,2.2,1.4c0.6,0.6,1.1,1.3,1.4,2.2s0.5,1.8,0.5,2.8s-0.2,1.9-0.5,2.8c-0.3,0.9-0.8,1.6-1.4,2.2s-1.3,1.1-2.2,1.4
		c-0.8,0.3-1.8,0.5-2.8,0.5c-1,0-1.9-0.2-2.8-0.5s-1.6-0.8-2.2-1.4c-0.6-0.6-1.1-1.3-1.4-2.2C372.9,155.9,372.7,155,372.7,154z
		 M373.9,154c0,0.8,0.1,1.6,0.4,2.3c0.3,0.7,0.6,1.3,1.1,1.8c0.5,0.5,1.1,0.9,1.8,1.2c0.7,0.3,1.5,0.4,2.3,0.4s1.6-0.1,2.3-0.4
		c0.7-0.3,1.3-0.7,1.8-1.2c0.5-0.5,0.9-1.1,1.1-1.8c0.3-0.7,0.4-1.5,0.4-2.3s-0.1-1.6-0.4-2.3c-0.3-0.7-0.6-1.3-1.1-1.8
		c-0.5-0.5-1.1-0.9-1.8-1.2s-1.5-0.4-2.3-0.4s-1.6,0.1-2.3,0.4c-0.7,0.3-1.3,0.7-1.8,1.2c-0.5,0.5-0.9,1.1-1.1,1.8
		C374.1,152.4,373.9,153.2,373.9,154z"/>
	<path d="M406.9,155.5c0,0.7-0.1,1.4-0.2,2c-0.2,0.6-0.4,1.2-0.8,1.7c-0.4,0.5-0.9,0.9-1.5,1.2c-0.6,0.3-1.4,0.4-2.3,0.4
		s-1.7-0.1-2.3-0.4c-0.6-0.3-1.1-0.7-1.5-1.2c-0.4-0.5-0.7-1.1-0.8-1.7c-0.2-0.6-0.2-1.3-0.2-2v-8.2h1.2v7.8c0,0.5,0,1,0.1,1.5
		c0.1,0.5,0.3,1,0.5,1.5s0.6,0.8,1.1,1.1c0.5,0.3,1.1,0.4,1.9,0.4s1.4-0.1,1.9-0.4c0.5-0.3,0.8-0.7,1.1-1.1s0.4-1,0.5-1.5
		c0.1-0.5,0.1-1,0.1-1.5v-7.8h1.2V155.5z"/>
</g>
<rect class="st0" width="530.4" height="136.2"/>
<g>
	<path d="M36.3,37.2h8.1l14,51.1h0.2l15.1-51.1h8.2l15,51.1h0.2l14.3-51.1h7.6l-18.1,61.5H93L77.8,46.6h-0.2L62.3,98.8h-8L36.3,37.2
		z"/>
	<path d="M138,42.2c0-1.3,0.5-2.5,1.4-3.5c1-1,2.1-1.5,3.5-1.5c1.4,0,2.6,0.5,3.5,1.5c1,1,1.4,2.1,1.4,3.5c0,1.4-0.5,2.6-1.4,3.6
		c-0.9,0.9-2.1,1.4-3.6,1.4s-2.6-0.5-3.6-1.4C138.5,44.8,138,43.6,138,42.2z M139.6,58.1h6.8v40.7h-6.8V58.1z"/>
	<path d="M173.2,37.2h41.3v12.5h-27.7v12.5h25.6v12.5h-25.6v24h-13.6V37.2z"/>
	<path d="M237.8,37.2h41.8v12.5h-28.2v11.5h26.7v12.5h-26.7v12.5h29.8v12.5h-43.4V37.2z"/>
	<path d="M317,49.2h-17.6v-12h48.7v12h-17.6v49.5H317V49.2z"/>
	<path d="M408.3,53.2c-1.3-1.6-3-2.9-4.9-3.7s-4.2-1.3-6.7-1.3c-2.5,0-4.9,0.5-7.1,1.5c-2.2,1-4.1,2.4-5.7,4.1s-2.8,3.9-3.7,6.3
		s-1.3,5.1-1.3,7.9c0,2.9,0.4,5.5,1.3,8s2.1,4.5,3.7,6.3c1.6,1.8,3.4,3.1,5.5,4.1c2.1,1,4.4,1.5,6.8,1.5c2.8,0,5.2-0.6,7.4-1.7
		c2.1-1.2,3.9-2.8,5.3-4.9l11.3,8.4c-2.6,3.7-5.9,6.3-9.9,8.1s-8.1,2.6-12.3,2.6c-4.8,0-9.2-0.8-13.3-2.3s-7.6-3.7-10.5-6.5
		c-3-2.8-5.3-6.2-6.9-10.2c-1.7-4-2.5-8.5-2.5-13.4c0-4.9,0.8-9.4,2.5-13.4c1.7-4,4-7.4,6.9-10.2c3-2.8,6.5-5,10.5-6.5
		c4.1-1.5,8.5-2.3,13.3-2.3c1.7,0,3.5,0.2,5.4,0.5c1.9,0.3,3.7,0.8,5.6,1.5c1.8,0.7,3.6,1.6,5.3,2.8c1.7,1.2,3.2,2.6,4.5,4.3
		L408.3,53.2z"/>
	<path d="M440.6,37.2h13.6v22.9h26.3V37.2H494v61.5h-13.6V72.2h-26.3v26.6h-13.6V37.2z"/>
</g>
</svg>
