<?xml version="1.0" encoding="utf-8"?>
<!-- Generator: Adobe Illustrator 24.3.0, SVG Export Plug-In . SVG Version: 6.00 Build 0)  -->
<svg version="1.1" id="OBJECTS" xmlns="http://www.w3.org/2000/svg" xmlns:xlink="http://www.w3.org/1999/xlink" x="0px" y="0px"
	 viewBox="0 0 349.3 354.1" style="enable-background:new 0 0 349.3 354.1;" xml:space="preserve">
<style type="text/css">
	.st0{opacity:0.25;fill:#DEE6F3;}
	.st1{opacity:0.8;fill:#DEE6F3;}
	.st2{fill:#DAE2ED;}
	.st3{fill:#FFC150;}
	.st4{fill:#FED267;}
	.st5{fill:#FCBD11;}
	.st6{fill:#FFB03A;}
	.st7{fill:#634E42;}
	.st8{fill:#8A6C5B;}
	.st9{fill:#FFD2A8;}
	.st10{fill:#F2A57E;}
	.st11{fill:#1D71B8;}
	.st12{fill:#FC8E74;}
	.st13{fill:url(#SVGID_1_);}
	.st14{fill:#305B85;}
	.st15{fill:url(#SVGID_2_);}
	.st16{fill:#FFFFFF;}
	.st17{fill:url(#SVGID_3_);}
	.st18{fill:#E0E0E0;}
	.st19{fill:url(#SVGID_4_);}
	.st20{fill:url(#SVGID_5_);}
	.st21{fill:#E67460;}
	.st22{fill:#EDEDED;}
	.st23{fill:url(#SVGID_6_);}
	.st24{fill:#567AA6;}
	.st25{fill:url(#SVGID_7_);}
	.st26{fill:#525252;}
	.st27{fill:url(#SVGID_8_);}
	.st28{fill:#3C3C3B;}
	.st29{fill:#254666;}
	.st30{fill:url(#SVGID_9_);}
	.st31{fill:#474747;}
	.st32{fill:#878787;}
</style>
<g>
	<g>
		<path class="st0" d="M305.8,263.9c-2.9,8.5-7,16.6-12.6,24.3c-15.5,21.3-37.2,35.7-59.7,44.9c-6.2,2.5-12.8,5-19.5,7.3
			c-6.6,2.2-13.3,4.3-20.2,6c-22.3,5.7-45.5,8.5-65.8,4.6c-28.6-5.4-53.6-25.4-70.8-51.7c-4-6.1-7.6-12.4-10.8-19
			c2.6-16.4,8.9-32.4,15.1-47.8L37,230.9c7.2-6.3,16.6-7,25.3-6.8c63.9,1.4,121.5,39.2,184.3,49.8c13.5,2.3,27.6,3.2,41-1.1
			C293.9,270.7,299.9,267.4,305.8,263.9z"/>
		<path class="st0" d="M305.8,263.9c-2.9,8.5-7,16.7-12.6,24.3c-15.5,21.3-37.2,35.7-59.7,44.9c-6.2,2.5-12.8,5-19.5,7.3
			c-0.3,0.1-0.7,0.2-1,0.3c-0.2,0.1-0.5,0.2-0.7,0.2c-0.4,0.1-0.9,0.3-1.3,0.4c-0.4,0.1-0.8,0.3-1.3,0.4c-0.3,0.1-0.6,0.2-0.8,0.3
			c-0.8,0.2-1.5,0.5-2.3,0.7c-0.1,0-0.2,0.1-0.3,0.1c-0.7,0.2-1.5,0.5-2.2,0.7c-0.8,0.3-1.7,0.5-2.5,0.7c-0.6,0.2-1.3,0.4-1.9,0.5
			c-0.2,0-0.3,0.1-0.5,0.1c-0.7,0.2-1.4,0.4-2.1,0.6c-0.1,0-0.2,0.1-0.3,0.1c-0.1,0-0.2,0-0.3,0.1c-0.5,0.1-1.1,0.3-1.6,0.4
			c-0.3,0.1-0.6,0.2-1,0.2c-0.7,0.2-1.4,0.4-2.2,0.5c-0.3,0.1-0.6,0.1-0.9,0.2c-1,0.2-2,0.5-3.1,0.7c-0.2,0.1-0.4,0.1-0.7,0.2
			c-0.5,0.1-1.1,0.2-1.6,0.4c-0.3,0.1-0.5,0.1-0.8,0.2c-0.3,0.1-0.7,0.1-1,0.2c-0.5,0.1-0.9,0.2-1.4,0.3c-0.3,0.1-0.6,0.1-0.9,0.2
			c-0.3,0-0.5,0.1-0.8,0.2c-0.7,0.1-1.4,0.3-2.1,0.4c-0.3,0.1-0.6,0.1-0.8,0.2c-0.3,0.1-0.7,0.1-1,0.2c-0.3,0.1-0.6,0.1-1,0.2
			c-0.1,0-0.1,0-0.2,0c0,0,0,0-0.1,0c-0.3,0.1-0.7,0.1-1,0.2c-0.2,0-0.4,0.1-0.6,0.1c-0.3,0.1-0.7,0.1-1,0.2
			c-0.5,0.1-0.9,0.1-1.3,0.2c-0.4,0.1-0.8,0.1-1.1,0.2c-0.5,0.1-0.9,0.1-1.4,0.2c-0.2,0-0.4,0.1-0.6,0.1c-0.3,0-0.6,0.1-0.8,0.1
			c-0.4,0.1-0.8,0.1-1.2,0.1c-0.3,0-0.7,0.1-1,0.1c-0.3,0-0.7,0.1-1,0.1c-0.3,0-0.5,0.1-0.8,0.1c-0.1,0-0.3,0-0.4,0
			c-0.1,0-0.3,0-0.4,0c0,0,0,0,0,0c-0.1,0-0.1,0-0.2,0c-0.4,0-0.8,0.1-1.2,0.1c-0.3,0-0.6,0-0.8,0.1c-0.1,0-0.1,0-0.2,0
			c-0.3,0-0.7,0.1-1,0.1c-0.4,0-0.7,0.1-1.1,0.1c-0.3,0-0.6,0-1,0.1c-0.1,0-0.1,0-0.2,0c-0.3,0-0.5,0-0.8,0c-0.3,0-0.6,0-0.9,0
			c-0.4,0-0.7,0-1.1,0c-0.1,0-0.1,0-0.2,0c-0.1,0-0.2,0-0.3,0c-0.1,0-0.1,0-0.2,0c0,0-0.1,0-0.1,0c-0.1,0-0.2,0-0.3,0c0,0,0,0,0,0
			c-0.1,0-0.2,0-0.3,0c-0.2,0-0.3,0-0.5,0c-0.1,0-0.2,0-0.3,0c-0.8,0-1.5,0-2.3,0c-0.2,0-0.3,0-0.5,0c-0.4,0-0.7,0-1.1,0
			c-0.1,0-0.1,0-0.2,0c-0.3,0-0.6,0-0.9,0c-0.3,0-0.6,0-0.9,0c-0.1,0-0.2,0-0.3,0c-0.2,0-0.4,0-0.5,0c-0.1,0-0.2,0-0.4,0
			c-0.4,0-0.8,0-1.3,0c0,0-0.1,0-0.1,0c-0.1,0-0.2,0-0.3,0c0,0,0,0-0.1,0c0,0-0.1,0-0.1,0c-0.1,0-0.3,0-0.4,0c0,0,0,0-0.1,0
			c0,0,0,0,0,0c-0.1,0-0.3,0-0.4,0c-0.3,0-0.7,0-1-0.1c-0.1,0-0.3,0-0.4,0c-0.1,0-0.2,0-0.3,0c-0.2,0-0.5,0-0.7,0
			c-0.4,0-0.8-0.1-1.2-0.1c-0.1,0-0.1,0-0.2,0c-0.2,0-0.4,0-0.6,0c-0.1,0-0.1,0-0.2,0c-0.1,0-0.3,0-0.4,0c-0.3,0-0.6-0.1-0.9-0.1
			c-0.1,0-0.3,0-0.4,0c-0.1,0-0.1,0-0.2,0c-0.2,0-0.4,0-0.6-0.1c-0.1,0-0.2,0-0.2,0c-0.3,0-0.5-0.1-0.8-0.1
			c-0.4-0.1-0.9-0.1-1.3-0.2c-0.2,0-0.3,0-0.5-0.1l-0.4-0.1c-0.2,0-0.4-0.1-0.6-0.1c-0.1,0-0.1,0-0.2,0c-0.1,0-0.2,0-0.3,0
			c-0.4-0.1-0.7-0.1-1.1-0.2c-0.6-0.1-1.1-0.2-1.7-0.3c-28.6-5.4-53.6-25.4-70.8-51.7c-0.5-0.7-0.9-1.4-1.4-2.1
			c-0.2-0.4-0.5-0.7-0.7-1.1c-0.1-0.2-0.3-0.5-0.4-0.7c-0.1-0.1-0.1-0.2-0.2-0.3c-0.6-1-1.2-1.9-1.7-2.9c-0.1-0.1-0.2-0.3-0.2-0.4
			c0,0-0.1-0.1-0.1-0.1c0-0.1-0.1-0.1-0.1-0.2c-0.2-0.3-0.3-0.6-0.5-0.9c0-0.1-0.1-0.1-0.1-0.2c-0.1-0.2-0.2-0.4-0.3-0.5
			c-0.1-0.2-0.3-0.5-0.4-0.7c-0.1-0.2-0.2-0.4-0.3-0.5c-0.1-0.2-0.2-0.4-0.4-0.7c-0.1-0.1-0.1-0.2-0.2-0.3c0-0.1-0.1-0.2-0.1-0.3
			c-0.2-0.3-0.4-0.7-0.5-1c-0.2-0.3-0.3-0.6-0.4-0.8c-0.1-0.1-0.1-0.3-0.2-0.4c-0.1-0.1-0.1-0.3-0.2-0.4c-0.1-0.3-0.3-0.5-0.4-0.8
			c0,0,0-0.1-0.1-0.1c0-0.1-0.1-0.1-0.1-0.2c-0.1-0.1-0.1-0.3-0.2-0.4c-0.1-0.2-0.2-0.4-0.3-0.6c-0.4-0.8-0.8-1.6-1.2-2.4
			c-0.2-0.4-0.4-0.7-0.5-1.1c-0.3-0.7-0.7-1.4-1-2.1c-0.1-0.3-0.3-0.6-0.4-0.8c-0.4-0.9-0.8-1.7-1.2-2.6c-0.2-0.3-0.3-0.7-0.5-1
			c0,0,0,0,0-0.1c-0.2-0.3-0.3-0.7-0.5-1c-0.1-0.3-0.3-0.7-0.4-1c-0.2-0.4-0.4-0.8-0.5-1.3c-0.3-0.7-0.6-1.4-0.9-2.1
			c-0.3-0.6-0.5-1.3-0.8-1.9c-0.1-0.3-0.3-0.6-0.4-1c-0.2-0.6-0.5-1.2-0.7-1.8c-5.1-13.4-8.9-27.6-11.7-42c-0.2-0.8-0.3-1.6-0.5-2.4
			c0-0.2-0.1-0.4-0.1-0.6c-0.6-3.2-1.1-6.3-1.6-9.5c-0.3-1.9-0.6-3.8-0.8-5.7c-0.1-0.4-0.1-0.9-0.2-1.3c0-0.3-0.1-0.6-0.1-0.8
			c-0.1-1-0.3-2-0.4-3c-4.8-39.7-2.2-81.8,14.8-117.8c3.1-6.6,6.7-12.7,10.7-18.5c0.4-0.6,0.9-1.3,1.3-1.9c0.2-0.2,0.3-0.4,0.5-0.6
			c1.1-1.5,2.2-3,3.4-4.4l0,0c1.3-1.7,2.7-3.3,4.1-5c0,0,0,0,0,0c0.4-0.5,0.9-1,1.3-1.5c0,0,0,0,0,0c0.5-0.5,1-1.1,1.4-1.6
			c0.4-0.4,0.7-0.8,1.1-1.2c0.3-0.3,0.5-0.6,0.8-0.8l0,0c0.1-0.1,0.2-0.2,0.3-0.3c0.2-0.2,0.4-0.4,0.6-0.6c0.3-0.3,0.6-0.6,0.9-0.9
			c1.1-1.1,2.3-2.2,3.4-3.3c1.5-1.4,3.1-2.8,4.6-4.1c0.3-0.3,0.7-0.6,1-0.8c0.8-0.6,1.5-1.3,2.3-1.9c17.6-14,37.9-23.6,58-28.7
			c14.1-3.6,27.6-4.8,40.3-3.6c0.5,0,1,0.1,1.4,0.1c0.2,0,0.3,0,0.5,0.1c3.9,0.4,7.7,1.1,11.4,2c0.2,0.1,0.5,0.1,0.7,0.2
			c0.7,0.2,1.4,0.4,2.1,0.6c17.4,4.9,33.1,15.1,46.7,31.4c2.5,3,5,6.2,7.3,9.7c22.5,32.5,38.8,73.9,52.7,112.4
			c3.5,9.7,6.8,20.1,9.3,30.8c0.1,0.6,0.3,1.1,0.4,1.7c0.1,0.2,0.1,0.4,0.2,0.7c0.4,1.6,0.7,3.1,1,4.7c0.8,3.9,1.5,7.8,2,11.7
			c0.2,1.1,0.3,2.2,0.4,3.3c0,0.2,0.1,0.5,0.1,0.7c0.1,0.8,0.2,1.7,0.3,2.5C312.4,229.6,311.5,247.4,305.8,263.9z"/>
		<path class="st1" d="M193.8,346.4c-0.7,0.2-1.4,0.4-2.2,0.5c-0.3,0.1-0.6,0.1-0.9,0.2c-1,0.2-2,0.5-3.1,0.7
			c-0.2,0.1-0.4,0.1-0.7,0.2c-0.5,0.1-1.1,0.2-1.6,0.4c-0.3,0.1-0.5,0.1-0.8,0.2c-0.3,0.1-0.7,0.1-1,0.2c-0.5,0.1-0.9,0.2-1.4,0.3
			c-0.3,0.1-0.6,0.1-0.9,0.2c-0.3,0-0.5,0.1-0.8,0.2c-0.7,0.1-1.4,0.3-2.1,0.4c-0.3,0.1-0.6,0.1-0.8,0.2c-0.3,0.1-0.7,0.1-1,0.2
			c-0.3,0.1-0.6,0.1-1,0.2c-0.1,0-0.1,0-0.2,0c0,0,0,0-0.1,0c-0.3,0.1-0.7,0.1-1,0.2c-0.2,0-0.4,0.1-0.6,0.1c-0.3,0.1-0.7,0.1-1,0.2
			c-0.5,0.1-0.9,0.1-1.3,0.2c-0.4,0.1-0.8,0.1-1.1,0.2c-0.5,0.1-0.9,0.1-1.4,0.2c-0.2,0-0.4,0.1-0.6,0.1c-0.3,0-0.6,0.1-0.8,0.1
			c-0.4,0.1-0.8,0.1-1.2,0.1c-0.3,0-0.7,0.1-1,0.1c-0.3,0-0.7,0.1-1,0.1c-0.3,0-0.5,0.1-0.8,0.1c-0.1,0-0.3,0-0.4,0
			c-0.1,0-0.3,0-0.4,0c0,0,0,0,0,0c-0.1,0-0.3,0-0.4,0c-0.3,0-0.7,0.1-1,0.1c-0.3,0-0.6,0-0.8,0.1c-0.1,0-0.1,0-0.2,0
			c-0.3,0-0.7,0.1-1,0.1c-0.4,0-0.7,0.1-1.1,0.1c-0.3,0-0.6,0-1,0.1c-0.1,0-0.1,0-0.2,0c-0.3,0-0.5,0-0.8,0c-0.3,0-0.6,0-0.9,0
			c-0.4,0-0.7,0-1.1,0c-0.1,0-0.1,0-0.2,0c-0.1,0-0.2,0-0.3,0c-0.1,0-0.1,0-0.2,0c0,0-0.1,0-0.1,0c-0.1,0-0.2,0-0.3,0c0,0,0,0,0,0
			c-0.1,0-0.2,0-0.3,0c-0.2,0-0.3,0-0.5,0c-0.1,0-0.2,0-0.3,0c-0.8,0-1.5,0-2.3,0c-0.2,0-0.3,0-0.5,0c-0.4,0-0.7,0-1.1,0
			c-0.1,0-0.1,0-0.2,0c-0.3,0-0.6,0-0.9,0c-0.3,0-0.6,0-0.9,0c-0.1,0-0.2,0-0.3,0c-0.2,0-0.4,0-0.5,0c-0.1,0-0.2,0-0.4,0
			c-0.4,0-0.8,0-1.3,0c0,0-0.1,0-0.1,0c-0.1,0-0.2,0-0.3,0c0,0,0,0-0.1,0c0,0-0.1,0-0.1,0c-0.1,0-0.3,0-0.4,0c0,0,0,0-0.1,0
			c0,0,0,0,0,0c-0.1,0-0.3,0-0.4,0c-0.3,0-0.7,0-1-0.1c-0.1,0-0.3,0-0.4,0c-0.1,0-0.2,0-0.3,0c-0.2,0-0.5,0-0.7,0
			c-0.4,0-0.8-0.1-1.2-0.1c-0.1,0-0.1,0-0.2,0c-0.2,0-0.4,0-0.6,0c-0.1,0-0.1,0-0.2,0c-0.1,0-0.3,0-0.4,0c-0.3,0-0.6-0.1-0.9-0.1
			c-0.1,0-0.3,0-0.4,0c-0.1,0-0.1,0-0.2,0c-0.2,0-0.4,0-0.6-0.1c-0.1,0-0.2,0-0.2,0c-0.3,0-0.5-0.1-0.8-0.1
			c-0.4-0.1-0.9-0.1-1.3-0.2c-0.2,0-0.3,0-0.5-0.1l-0.4-0.1c-0.2,0-0.4-0.1-0.6-0.1c-0.1,0-0.1,0-0.2,0c-0.1,0-0.2,0-0.3,0
			c-0.4-0.1-0.7-0.1-1.1-0.2c-0.6-0.1-1.1-0.2-1.7-0.3c-28.6-5.4-53.6-25.4-70.8-51.7c-0.5-0.7-0.9-1.4-1.4-2.1
			c-0.2-0.4-0.5-0.7-0.7-1.1c-0.1-0.2-0.3-0.5-0.4-0.7c-0.1-0.1-0.1-0.2-0.2-0.3c-0.6-1-1.2-1.9-1.7-2.9c-0.1-0.2-0.2-0.4-0.3-0.5
			c0-0.1-0.1-0.1-0.1-0.2c-0.2-0.3-0.3-0.6-0.5-0.9c0-0.1-0.1-0.1-0.1-0.2c-0.1-0.2-0.2-0.4-0.3-0.5c-0.1-0.2-0.3-0.5-0.4-0.7
			c-0.1-0.2-0.2-0.4-0.3-0.5c-0.1-0.2-0.2-0.4-0.4-0.7c-0.1-0.1-0.1-0.2-0.2-0.3c0,0,0,0,0-0.1c0-0.1-0.1-0.1-0.1-0.2
			c-0.2-0.3-0.4-0.7-0.5-1c-0.2-0.3-0.3-0.6-0.4-0.8c-0.1-0.1-0.1-0.3-0.2-0.4c-0.1-0.1-0.1-0.3-0.2-0.4c-0.1-0.3-0.3-0.5-0.4-0.8
			c0,0,0-0.1-0.1-0.1c0-0.1-0.1-0.1-0.1-0.2c-0.1-0.1-0.1-0.3-0.2-0.4c-0.1-0.2-0.2-0.4-0.3-0.6c-0.4-0.8-0.8-1.6-1.2-2.4
			c-0.2-0.4-0.4-0.7-0.5-1.1c-0.3-0.7-0.7-1.4-1-2.1c-0.1-0.3-0.3-0.6-0.4-0.8c-0.4-0.9-0.8-1.7-1.2-2.6c-0.2-0.3-0.3-0.7-0.5-1
			c0,0,0,0,0-0.1c-0.2-0.3-0.3-0.7-0.5-1c-0.1-0.3-0.3-0.7-0.4-1c-0.2-0.4-0.4-0.8-0.5-1.3c-0.3-0.7-0.6-1.4-0.9-2.1
			c-0.3-0.6-0.5-1.3-0.8-1.9c-0.1-0.3-0.3-0.6-0.4-1c-0.2-0.6-0.5-1.2-0.7-1.8c-5.1-13.4-8.9-27.6-11.7-42c-0.2-0.8-0.3-1.6-0.5-2.4
			c0-0.2-0.1-0.4-0.1-0.6c-0.6-3.2-1.1-6.3-1.6-9.5c-0.3-1.9-0.6-3.8-0.8-5.7c0.8-0.1,1.7-0.1,2.5-0.1c2.1-0.1,4.1-0.1,6.1-0.1
			c0.7,0,1.4,0,2.1,0.1c0.4,0,0.8,0,1.2,0.1c0.3,0,0.5,0,0.8,0.1c0.2,0,0.4,0,0.5,0c0.4,0,0.9,0.1,1.3,0.1c0,0,0.1,0,0.1,0
			c0.2,0,0.4,0,0.6,0.1c0.7,0.1,1.3,0.1,2,0.2c0.1,0,0.2,0,0.3,0c0.2,0,0.4,0.1,0.6,0.1c0.6,0.1,1.2,0.2,1.8,0.3
			c17.5,2.7,34.1,10.5,47.8,22.8c0.6,0.5,1.2,1.1,1.7,1.6c19.7,18.5,32.6,44.7,47.9,68.3c6.6,10.1,13.6,19.7,21.8,28
			C172.3,333.2,182.7,340.5,193.8,346.4z"/>
		<path class="st2" d="M214,340.4c-27.9,9.4-59.4,15.6-86,10.6c-28.6-5.4-53.6-25.4-70.8-51.7c-7.4-11.3-13.5-23.8-18.5-36.9
			c43.1,4.5,84.8,20,121.4,45.2c15.2,10.5,29.6,22.7,46.3,29.9C208.8,338.6,211.4,339.5,214,340.4z"/>
	</g>
	<g>
		<path class="st3" d="M277.3,76.9l-48,42.6c-0.8,0.7-1.2,1.7-1,2.7l9.8,52l1.5,8.1c0.5,2.5-2.4,4.4-4.9,3.2l-0.9-0.4l-0.5-0.2
			c0.2-0.5,0.5-1.1,0.6-1.5c0.3-1.1,0.1-2.4-0.3-3.4c-0.3-0.6-0.7-1.2-1.1-1.6c-0.1-0.2-0.3-0.3-0.5-0.4c0,0-0.1,0-0.1,0
			c-0.8-0.3-1.8-0.1-2.2,0.8c-0.6,1.2-1.2,2.3-1.8,3.6l-52.7-25.2c-1-0.5-2.1-0.5-3.1,0l-50.3,24c-0.5-1.6-1.4-3.3-2.1-4.7
			c-0.7-1.5-0.8-2.8-1-4.3c0-0.1,0-0.3-0.1-0.4c-0.1-0.7-0.5-0.8-1.3-0.9c0,0-0.1,0-0.1,0c-0.7,0-1.3,0.1-1.9,0.5
			c-0.5,0.4-0.8,0.9-1,1.5c-0.1,0.3-0.2,0.6-0.3,0.9c-0.3,0.9-0.3,1.8-0.3,2.7c0,0,0,0,0,0.1c0.2,1.5,1.5,3,1.5,4.5c0,0,0,0,0,0.1
			c0,0.2,0,0.5,0,0.7c0,0.2,0,0.5,0,0.7c0,0.5,0,1,0,1.3c0,0.2,0,0.4,0,0.4c0,0,0,0.1,0,0.1l0,0l-2.6,1.2c-1.3,0.6-2.7,0.4-3.7-0.3
			c-0.9-0.6-1.4-1.7-1.2-2.9l1.3-6.9l10-53.2c0.2-1-0.2-2-1-2.7l-48-42.6c-2-1.8-0.9-4.8,1.9-5.2l66.4-8.8c1.1-0.1,2-0.8,2.5-1.7
			l29.7-54.7c1.2-2.3,4.8-2.3,6,0l29.7,54.7c0.5,0.9,1.4,1.5,2.5,1.7l44.1,5.8l22.2,2.9C278.2,72.1,279.3,75.2,277.3,76.9z"/>
		<g>
			<path class="st4" d="M173.9,19.3l-26.5,46.6c-1.4,2.4-4.1,4.1-7.1,4.3l-57.4,4.8l60.7,2.6c3.9,0.2,7.4-2,8.7-5.3L173.9,19.3z"/>
		</g>
		<path class="st5" d="M115.5,182.5c0,0.5,0,1,0,1.3c0,0.2,0,0.4,0,0.4c0,0,0,0.1,0,0.1l0,0l-2.6,1.2c-1.3,0.6-2.7,0.4-3.7-0.3
			c-0.9-0.6-1.4-1.7-1.2-2.9l1.3-6.9c1.6-0.5,3.3-1.1,4.9-1.6c-0.3,0.9-0.3,1.8-0.3,2.7c0,0,0,0,0,0.1c0.2,1.5,1.5,3,1.5,4.5
			c0,0,0,0,0,0.1c0,0.2,0,0.5,0,0.7C115.6,182,115.5,182.2,115.5,182.5z"/>
		<path class="st6" d="M277.3,76.9l-48,42.6c-0.8,0.7-1.2,1.7-1,2.7l9.8,52l1.5,8.1c0.5,2.5-2.4,4.4-4.9,3.2l-0.9-0.4l-0.5-0.2
			c0.2-0.5,0.5-1.1,0.6-1.5c0.3-1.1,0.1-2.4-0.3-3.4c-0.3-0.6-0.7-1.2-1.1-1.6c-0.1-0.2-0.3-0.3-0.5-0.4c0,0-0.1,0-0.1,0
			c-0.8-0.3-1.8-0.1-2.2,0.8c-0.6,1.2-1.2,2.3-1.8,3.6l-52.7-25.2c-1-0.5-2.1-0.5-3.1,0l-50.3,24c-0.5-1.6-1.4-3.3-2.1-4.7
			c-0.7-1.5-0.8-2.8-1-4.3c49.8-17.6,100.5-48.2,134.3-103.4l22.2,2.9C278.2,72.1,279.3,75.2,277.3,76.9z"/>
	</g>
	<g>
		<path class="st3" d="M26.7,152.5l20.4,12.1c0.3,0.2,0.7,0.2,1.1,0.1l21.5-10c0.9-0.4,1.9,0.4,1.7,1.3l-5.2,23.2
			c-0.1,0.4,0,0.8,0.3,1.1l16.1,17.4c0.7,0.7,0.2,1.9-0.8,2l-23.6,2.2c-0.4,0-0.7,0.3-0.9,0.6l-11.6,20.7c-0.5,0.9-1.7,0.8-2.1-0.1
			l-9.4-21.8c-0.2-0.4-0.5-0.6-0.9-0.7L10.1,196c-1-0.2-1.3-1.4-0.6-2.1l17.8-15.7c0.3-0.3,0.4-0.6,0.4-1l-2.8-23.6
			C24.8,152.7,25.9,152,26.7,152.5z"/>
		<g>
			<path class="st4" d="M28.5,157.2l2.1,20.3c0.1,1.1-0.3,2.1-1.2,2.8l-16,12.6l18.5-10.9c1.2-0.7,1.8-2.1,1.5-3.4L28.5,157.2z"/>
		</g>
		<path class="st6" d="M42.6,220.6l1.1,2.5c0.4,0.9,1.6,1,2.1,0.1l11.6-20.7c0.2-0.3,0.5-0.6,0.9-0.6l23.6-2.2c1-0.1,1.4-1.3,0.8-2
			l-16.1-17.4c-0.3-0.3-0.4-0.7-0.3-1.1l5.2-23.2c0.2-1-0.8-1.7-1.7-1.3l-7.2,3.3C64.4,184.1,54.6,204.8,42.6,220.6z"/>
	</g>
	<g>
		<path class="st3" d="M312,144.2l-4.3,22.3c-0.1,0.4,0,0.7,0.3,1l16,16.1c0.7,0.7,0.3,1.8-0.7,1.9l-22.5,2.8
			c-0.4,0-0.7,0.3-0.9,0.6l-10.4,20.2c-0.4,0.8-1.6,0.8-2,0l-9.7-20.5c-0.2-0.3-0.5-0.6-0.8-0.6l-22.4-3.7c-0.9-0.2-1.3-1.3-0.6-1.9
			l16.5-15.5c0.3-0.3,0.4-0.6,0.3-1l-3.4-22.4c-0.1-0.9,0.8-1.6,1.7-1.2l19.9,10.9c0.3,0.2,0.7,0.2,1.1,0l20.3-10.2
			C311.2,142.6,312.2,143.3,312,144.2z"/>
		<g>
			<path class="st4" d="M308.4,147.4l-17.6,8.4c-0.9,0.4-2,0.4-2.9-0.2l-16.6-10.3l15.8,13.1c1,0.8,2.4,0.9,3.5,0.2L308.4,147.4z"/>
		</g>
		<path class="st6" d="M255.9,180.6l-1.9,1.8c-0.7,0.6-0.3,1.8,0.6,1.9L277,188c0.4,0.1,0.7,0.3,0.8,0.6l9.7,20.5
			c0.4,0.9,1.6,0.9,2,0L300,189c0.2-0.3,0.5-0.6,0.9-0.6l22.5-2.8c0.9-0.1,1.3-1.3,0.7-1.9l-5.3-5.4
			C295.8,188.4,274,186.3,255.9,180.6z"/>
	</g>
	<g>
		<path class="st3" d="M316.9,217.9l0,12.7c0,0.2,0.1,0.4,0.3,0.5l10.5,7.2c0.4,0.3,0.3,1-0.2,1.1l-12.1,4c-0.2,0.1-0.4,0.2-0.4,0.4
			l-3.6,12.2c-0.1,0.5-0.8,0.6-1.1,0.2l-7.5-10.2c-0.1-0.2-0.3-0.3-0.5-0.3l-12.7,0.4c-0.5,0-0.8-0.6-0.5-1l7.4-10.3
			c0.1-0.2,0.2-0.4,0.1-0.6l-4.3-12c-0.2-0.5,0.3-1,0.8-0.8l12.1,3.9c0.2,0.1,0.4,0,0.6-0.1l10-7.8
			C316.3,217.1,316.9,217.3,316.9,217.9z"/>
		<g>
			<path class="st4" d="M315.2,220l-8.8,6.5c-0.5,0.3-1.1,0.4-1.6,0.2l-10.2-3.9l10.1,5.5c0.6,0.4,1.4,0.2,2-0.3L315.2,220z"/>
		</g>
		<path class="st6" d="M290,243.8l-0.9,1.2c-0.3,0.4,0,1,0.5,1l12.7-0.4c0.2,0,0.4,0.1,0.5,0.3l7.5,10.2c0.3,0.4,1,0.3,1.1-0.2
			l3.6-12.2c0.1-0.2,0.2-0.4,0.4-0.4l12.1-4c0.5-0.2,0.6-0.8,0.2-1.1l-3.5-2.4C312.7,243.8,300.5,245,290,243.8z"/>
	</g>
	<g>
		<path class="st3" d="M36.1,260.4l0,11.4c0,0.2,0.1,0.4,0.2,0.5l9.4,6.4c0.4,0.3,0.3,0.9-0.1,1l-10.8,3.6c-0.2,0.1-0.3,0.2-0.4,0.4
			l-3.2,11c-0.1,0.5-0.7,0.6-1,0.2l-6.7-9.2c-0.1-0.2-0.3-0.2-0.5-0.2l-11.4,0.3c-0.5,0-0.8-0.5-0.5-0.9l6.7-9.3
			c0.1-0.2,0.1-0.3,0.1-0.5L14,264.3c-0.2-0.4,0.3-0.9,0.7-0.7l10.9,3.5c0.2,0.1,0.4,0,0.5-0.1l9-7C35.5,259.7,36.1,260,36.1,260.4z
			"/>
		<g>
			<path class="st4" d="M34.6,262.3l-7.9,5.9c-0.4,0.3-1,0.4-1.4,0.2l-9.2-3.5l9.1,5c0.6,0.3,1.3,0.2,1.8-0.2L34.6,262.3z"/>
		</g>
		<path class="st6" d="M11.9,283.8l-0.8,1.1c-0.3,0.4,0,0.9,0.5,0.9l11.4-0.3c0.2,0,0.4,0.1,0.5,0.2l6.7,9.2c0.3,0.4,0.9,0.3,1-0.2
			l3.2-11c0.1-0.2,0.2-0.3,0.4-0.4l10.8-3.6c0.4-0.1,0.5-0.7,0.1-1l-3.2-2.2C32.3,283.8,21.4,284.9,11.9,283.8z"/>
	</g>
	<g>
		<path class="st7" d="M226.2,136.4c-0.3-1.5-0.8-4.6-5.2-8.8c-1.1-1-2.9-2.2-4.7-3c-2.2-1-3.7-1.3-5.1-4c-3.8-7.8-8.8-6.1-13.7-2.9
			c-2.6,1.7-5.8,2-8.8,1c-2.8-0.8-5.2-2-8.3-0.9c-3.1,1.2-2.9,2.9-5.4,4.6c-2.1,1.4-4.4,1.8-5.6,4.5c-1.5,3.4-0.1,8.9,4.7,9.7
			c2.2,0.4,4.3-0.1,6.2,1.4c1.6,1.2,2.4,3.1,3.3,4.7c2.9,5,4.6,6,10.3,4.5c2-0.5,4-1.4,6.4-0.6c3,1,3.4,3,4.9,5.2
			c2.8,3.8,8.8,2.8,10.8-1.5c0.8-1.8,2.2-4.5,5.2-5.6c1.1-0.4,2.2-0.8,3.1-1.6C226.4,141.6,226.7,138.7,226.2,136.4z"/>
		<path class="st8" d="M223.2,133.5c0.1-5.1-3.5-7.3-6.8-8.9c-2.2-1-3.7-1.3-5.1-4c-3.8-7.8-8.8-6.1-13.7-2.9c-2.6,1.7-5.8,2-8.8,1
			c-2.8-0.8-5.2-2-8.3-0.9c-3.1,1.2-2.9,2.9-5.4,4.6c-2.1,1.4-4.4,1.8-5.6,4.5c-1.5,3.4,0.8,2.7,1.7,2.2c1.8-1.3,4-9.8,11.6-7.6
			c2.9,0.8,4.2,3.1,5.5,4.5c3.1,3.5,6.5,2.7,11.1-0.9c6-4.6,8.2-1.8,10.1,1.2c2.1,3.3,3.8,6.9,6.9,3.4
			C219.3,126.2,223.1,138.1,223.2,133.5z"/>
		<path class="st9" d="M153.6,92.5c-1.7,0-1.1,1.1,1.2,4c1.1,1.3,1.5,3,1.6,4.6c-0.9-0.7-1.2-3.8-2.3-3.9c-0.8-0.1,0,2.5,0.2,7.2
			c0.1,2.6,2,3.5,2.5,5.2c0.7,2.5,2.4,5.8,4.6,3.6c1-1-0.3-4.1-0.2-6.2c0.1-2.1,0.3-2.9,0.2-4.1c-0.2-1.9-0.3-4.3-1.5-6.3
			c-0.8-1.4-1.9-3.2-3.5-3.6C155.6,92.8,154.7,92.5,153.6,92.5z"/>
		<path class="st10" d="M184.3,307.1c-0.3-1.9-1.6-2.6-2.5-4.2c-3-5.5-4.1-11.1-4.4-15c-0.2-3.6,0-7-0.3-10.8
			c-0.3-3.8-2.4-6.9-2.9-10.7c-0.5-3.7-0.6-7.4-1.2-11.1c-0.5-2.7-0.7-7.4-2.7-9.5c-2.4-2.4-8.9-3.8-12.1-3.4
			c-1.8,0.2-3.1,0.5-2.8,2.4c0.3,1.8,2,4.9,2.6,6.6c0.6,1.9,0.6,3.8,0.5,5.8c-0.1,3.3,0.2,6.2,1.8,9.1c1,1.7,1.8,3.1,2.4,4.9
			c0.5,1.7,1.1,4.6,1.7,6.2c2.6,7.2,6.6,13.1,8.3,20.5c0.8,3.5,0.3,7,0.2,10.6c-0.1,1.9-0.1,3.9-0.2,5.8c-0.1,1.3,0.3,5.4-0.4,6.3
			c-0.8,1.1-4.3,1.2-3.8,3.3c0.3,1.5,2.5,1.2,3.5,0.7c1.3-0.6,2.1-1.8,2.6-3.1c1.1-2.8,2.1-5.4,5-7.1
			C181.9,313,185,310.9,184.3,307.1z"/>
		<path class="st11" d="M189,318.3c-2.6-3.3-0.4-8-2.4-11.6c-0.6-1-2.5-3.8-3.8-3.8c-1.2,0-1.1,1.8-1.4,2.8c-1,3.6-2.2,8.4-4.5,11.4
			c-2.1,2.7-6.3,2.7-8.6,5.1c-2.9,3.1-0.1,4,3.8,3.6c3.5-0.4,6.5-1.6,8-4.9c0.7-1.6,1-3.3,1.6-4.8c0.6-1.5,1-3.6,2.8-2.7
			c1.2,0.6,1.5,2.5,2.1,3.5c0.2,0.4,0.8,2.1,1.3,2.2C188.6,319.4,189.6,319.1,189,318.3z"/>
		<path class="st12" d="M171.4,146.8c0.5-0.6,0.7-2.2,0.2-3.8c-0.5-1.7-1.8-2.5-1.5-5.5c0.2-1.9-1.6-4.2-2-6c-0.4-1.8-1.1-4.3-1.5-6
			c-0.4-1.9-2.1-6.5-2.8-8.4c-0.5-1.4-1.7-7.1-2.3-8.8c-0.5-1.5-7.6,1.8-7.7,3.8c0,1.1,1.6,2.6,2,3.9c0.5,1.8,0.8,5.7,1.1,7.6
			c0.3,2,1.8,8.4,2,10.4c0.2,1.9,1.5,3.5,1,5.4c-0.4,1.7-1.7,2.1-3.2,2.7c-2.1,0.8-4.1,1.9-6,3.2c-1.2,0.8-9.6,5.4-7.9,6.4
			c1,0.6,5.8-2.8,6.9-3.2c2.4-0.9,4.9-1.7,7.4-2.3c2.4-0.5,4.6-0.5,7,0C165.2,146.4,170.4,148,171.4,146.8z"/>
		<linearGradient id="SVGID_1_" gradientUnits="userSpaceOnUse" x1="132.3616" y1="168.7924" x2="171.2175" y2="168.7924">
			<stop  offset="0" style="stop-color:#EB816F"/>
			<stop  offset="0.1741" style="stop-color:#E67865"/>
			<stop  offset="0.6855" style="stop-color:#D9614D"/>
			<stop  offset="1" style="stop-color:#D45944"/>
		</linearGradient>
		<path class="st13" d="M171.2,147.7c0-1.9-5-2.2-6.4-2.5c-2.6-0.5-5.2-1.1-7.8-0.5c-2.4,0.6-4.7,1.7-7,2.6c-2.1,0.9-4.8,1.7-6.7,3
			c-1.7,1.2-2.2,3.3-2.9,5.1c-1.1,2.7-2.3,5.2-3.6,7.8c-1.8,3.6-6.5,8.8-3.5,12.8c1.3,1.7,3,3.2,4.8,4.3c4.2,2.5,9.3,2.5,12.4,5
			c1.8,1.4,3.9,5.6,5.7,6.8c4.2,2.7,3.4-0.3,3.6-3c0.2-3-1.9-9.3-2.7-12.2c-0.6-2.2-1.5-4.3-1.2-6.6c0.5-4.9,4.4-8.7,6.6-12.9
			c1-1.9,1.4-4.6,2.9-6.3C166.7,149.8,171.3,151.9,171.2,147.7z"/>
		<path class="st10" d="M184.2,145.3c0.4-1.5-2.1,1.8-5.3,2.3c-1.7,0.3-3.3-0.4-4.6-1.5c-2.1-1.7-1.5-5.5-2.7-4.1
			c-0.8,0.9-0.5,5.2-0.9,8.5c-0.3,2.4-1.4,4.3-2.2,4.9c-0.9,0.6-3.2,1.8-4.2,2.4c-1.7,1.1-5.7,3.2-3.3,5.5c1.4,1.3,5.9,1.9,7.6,1.5
			c3.5-0.8,4.8-3.8,7.4-5.8c2.1-1.7,4.2-2.9,5.7-5.3C182.4,152.5,183.8,147.2,184.2,145.3z"/>
		<path class="st9" d="M264.3,175.1c-1-0.4-10.1-1.8-12.5-0.5c-2.3,1.2-4.8,2.4-6.9,3.8c-1.8,1.2-2.2,4.7,0.1,5.7
			c1.9,0.8,4.9-1.4,6.9-1.6c1-0.1,6.7-1.5,7.1-2.2c0.5-0.9-4.4-0.4-4.7-0.8c-0.2-0.2,1.3-0.7,3-1.3
			C259.2,177.4,267.2,176.1,264.3,175.1z"/>
		<path class="st9" d="M236.2,243.8c-3.2-4.8-8.9-4.5-13.7-6.1c-2-0.7-4.3-2.6-6.3-1c-1.7,1.4-2.2,3.6-4.1,5
			c-8.8,6.3-21.3,4.1-28.3,12.9c0.4-2.1,1.2-4.2,1.5-6.3c0.4-2.6-0.2-2.9-2.6-2.6c-2.4,0.3-4.7,0.5-7.1,0.5c-1.8,0-4.3-0.4-5.9,0.6
			c-1.5,1-1.2,2.5-1.1,4.1c0.2,2.4,0.4,4.9,0.6,7.3c0.3,4.1,1.1,7.6,4.2,10.5c2.6,2.4,7.5,0.5,10.5-0.7c3.9-1.5,6.5-2.6,9.8-5
			c3.4-2.5,7.2-4.9,10.6-7.6c3.4-2.8,7.6-7.1,12-8.1c2.5-0.6,6.2-0.5,8.7-0.5c2,0,4.6-0.4,6.6-0.1c1.7,0.3,3.8,3.3,5.5,2.5
			C239.1,248.1,236.9,244.9,236.2,243.8z M236.8,247.7c-0.7-1.7-1.5-3.3-2.5-4.8C235.4,244.1,236.9,246,236.8,247.7z"/>
		<path class="st11" d="M239.3,250c-0.3-3.6-1.4-9.6-5.4-10.9c-2-0.7-10.7-1-9.4-4.2c0.8-2.1,4.1-2.3,5.6-3.3c1.4-1,0.1-1.7-1.6-0.9
			c-2,1-4,1.5-6.2,1.8c-1.6,0.2-3.4,0-4.8,0.7c-1.2,0.6-3.1,2.7-3.1,4.2c0,1.6,3.5,2.2,4.9,2.6c3.1,1,6.4,1.2,9.5,2.2
			c1.1,0.4,2.6,0.9,3.3,2c0.8,1.2,0,1.8,0.2,3c0.1,0.9,2.3,2.9,3.1,3.4C236.2,251.2,239.6,253.2,239.3,250z"/>
		<path class="st14" d="M191.3,214.5c-0.3-0.6-4.2,0.6-4.7,0.7c-2.3,0.3-4.6,0.4-6.9,0.3c-4.6-0.3-8.9-1.7-13.4-2.7
			c-1.7-0.4-5.2-1.5-7.1-1c-1.4,0.4,0,2.7-0.2,4.3c-0.3,2.3-1.2,4.9-2,7.1c-0.9,2.6-1.3,4.9-1.8,7.6c-0.4,2.4-0.8,4.8-1.1,7.2
			c-0.2,1.9,0,5.6,0.5,7.4c0.7,2.9,6.6,3.6,8.9,4c4.9,1,10,1.2,15,0.5c2.4-0.3,4.8-0.8,7-1.6c0.2-0.1,1.5-0.4,1.7-0.6
			c0.5-0.7,0-2.9-0.1-3.8c-0.6-5.1,0.5-10,2.3-14.8C191.2,224.7,193.5,219,191.3,214.5z"/>
		<linearGradient id="SVGID_2_" gradientUnits="userSpaceOnUse" x1="159.1895" y1="138.1838" x2="170.1702" y2="138.1838">
			<stop  offset="0" style="stop-color:#EB816F"/>
			<stop  offset="0.1741" style="stop-color:#E67865"/>
			<stop  offset="0.6855" style="stop-color:#D9614D"/>
			<stop  offset="1" style="stop-color:#D45944"/>
		</linearGradient>
		<path class="st15" d="M170.2,139.7c-0.8-0.5-2.2-1.5-4.5-1.4c-3.6,0.1-5.3,1.4-6.5,2.4c0.3-0.3,0.5-0.7,0.6-1.3
			c0.1-0.3,0.1-0.6,0.1-0.8c0.9-1.2,2.3-2.4,5.2-2.8c2-0.3,3.9,1.2,4.9,2.4C170,138.7,170.1,139.2,170.2,139.7z"/>
		<path class="st9" d="M186.9,140.2c1.1-0.5,1.6-3.4,1.7-4.5c0.2-1.6-0.1-3.1-0.9-4.6c-1.4-2.8-3.8-4.3-6.9-4.7
			c-2.6-0.3-5.7,0.5-7.5,2.6c-1,1.2-1.6,2.6-2,4.1c-0.2,0.7-0.3,1.7-0.7,2.4c-1.4,2.5,0.4-1.1-1,1c-0.7,1-0.9,2-0.9,3.3
			c0,1.6,0.9,2.4,1.1,3.7c0.3,2,0.3,2.7,1.9,4.2c1.4,1.2,2.9,2.2,4.8,2.3c1.3,0,3.4-0.2,4.5-0.7c1.3-0.6,2.9-3.6,2.9-3.6
			s2-0.8,2.6-2C187.5,141.9,187.8,141,186.9,140.2z"/>
		<path class="st16" d="M179.5,144.4c-1.4-1-3.5-2-5.5-2c-0.4,0-0.5,0.4-0.2,0.6c1.6,1.3,3.4,1.8,5.6,1.9
			C179.6,145,179.8,144.7,179.5,144.4z"/>
		<path class="st7" d="M189.3,133c-0.3-3.5-1.8-6.3-5.9-7.9c-3.5-1.4-7.7-0.4-9.8,1.5c-2,1.9-2.9,4.3-3.5,6.8
			c-0.1,0.3-1,2.7-0.2,2.8c0.7,0.2,1.6-3.2,2-3.9c1.5-3.1,2.9-4.8,6.5-4.8c3,0,7.2,1.6,8.6,4.4c0.8,1.6,0.7,3.4,0.4,5.1
			c-0.2,1.1-1,3.2-0.4,3.2C187.8,140.2,189.5,135.6,189.3,133z"/>
		<linearGradient id="SVGID_3_" gradientUnits="userSpaceOnUse" x1="190.5319" y1="159.3311" x2="159.9251" y2="212.3436">
			<stop  offset="0" style="stop-color:#FFFFFF"/>
			<stop  offset="0.4031" style="stop-color:#F6F6F6"/>
			<stop  offset="1" style="stop-color:#EDEDED"/>
		</linearGradient>
		<path class="st17" d="M191.6,213.9c-0.2-3.1-1.5-6.2-4.3-8c-2.7-1.7-6.3-1.5-7.8-4.7c-1.5-3.1-2-7.3-2.4-10.7
			c-0.5-4.2-0.2-8.5,0.6-12.7c0.8-4.1,2.1-8.1,2.8-12.2c0.3-1.7,0.5-3.3,0.6-5c0.1-1,1-5.1,0.3-5.8c-1.2-1.2-6.1,4-7.2,5
			c-2.6,2.2-3,4.8-8.5,4.5c-2.4-0.1-6.6-0.6-4-3.9c1.1-1.4,3.1-2.6,4.7-3.4c2.2-1.2,3.3-1.6,4-4c0.4-1.3,0.6-3.5,0.5-4.1
			c-0.1-0.4,0-1.3-1.5-1.7c-1.1-0.3-2.7,0.5-4,1.1c-2.5,1.2-2.5,2.7-2.8,4.9c-0.2,1.2-0.3,2.3-0.7,3.2c-3.6,6.2-11.9,10-8.3,18.4
			c1.5,3.6,4.2,5.2,4.6,9.1c0.3,3.8-0.8,9.1-0.3,12.9c0.3,2.1,0.8,4.3,0.5,6.5c-0.2,1.8-0.7,3.2-0.7,5c0,4.5,3.5,4.3,7.5,5.2
			c1.4,0.3,8.8,2.5,15.4,2.9C186.4,216.7,191.7,215.5,191.6,213.9z"/>
		<path class="st18" d="M177.8,195.8c3.4-1.4-2.2-14.7-0.1-18c2.1-3.4-6.5-4.5-11.8-3.3c-2.8,0.6-5.9,0.5-9.1-1.4
			c-2-1.2-4.3-1.9-3.2,1.6c0.9,3.2,4.2,5.2,4.6,9.1c0.3,3.8-0.3,4.6,1.1,4.4c1.5-0.3,1.7-1.1,4.8-1.5
			C169.4,186,174.9,197,177.8,195.8z"/>
		<path class="st12" d="M245.5,184.8c0.3-0.6-1.4-2-1.6-2.8c-0.1-0.6-0.1-1.2,0-1.7c0.1-0.5,0.9-1.7,0.9-2.1c-0.1-1-0.9-0.7-1.9-0.6
			c-1.8,0.1-3.5,0.1-5.3-0.3c-3.4-0.8-6.7-1.6-10.2-2.2c-3.8-0.7-8-1.1-11.7-2.5c-2.9-1.1-5.6-3.5-8.5-4.9c-2.1-1.1-5.2-3.2-6.7-5.1
			c-1.1-1.3-0.5-1.9-0.4-3.3c0.1-1.2-0.3-2.5-0.7-3.7c-1.2-3.1-3.6-3.4-6.6-4c-2.9-0.6-6.7-1.6-9.1,0.7c-2.3,2.2-2.3,5.8-3.3,8.6
			c-1.1,2.8-3.1,5.1-4.5,7.7c-1.8,3.3-2,6.8-2.4,10.5c-0.4,3.4,0.2,6.5,0.2,9.9c0,3.7,0.4,7.2,0.9,10.9c0.3,2.8,0.2,5.4,2.1,7.7
			c2,2.3,6,2.8,8.7,2c3-0.9,8.1-2.1,7.1-5.5c-1.1-3.7-6.3-6.6-6.8-10.5c-0.6-4.1,2.1-7.4,3.4-11c0.6-1.7,0.9-4.7,2.1-5.8
			c1.2-1.2,3-1.1,3.6-3.1c3.9,2.9,8.5,4.9,12.9,6.7c1.9,0.8,4,2,5.9,2.2c2.1,0.2,4.6-0.3,6.8,0.2c4.8,1.2,9,2.3,13.9,3.2
			c2.5,0.4,4.7,0.5,7.2,0.2c0.6-0.1,3.6,0,4-0.3C245.6,185.6,246.4,184.9,245.5,184.8z"/>
		<linearGradient id="SVGID_4_" gradientUnits="userSpaceOnUse" x1="173.2829" y1="164.3794" x2="187.1385" y2="164.3794">
			<stop  offset="0" style="stop-color:#EB816F"/>
			<stop  offset="0.1741" style="stop-color:#E67865"/>
			<stop  offset="0.6855" style="stop-color:#D9614D"/>
			<stop  offset="1" style="stop-color:#D45944"/>
		</linearGradient>
		<path class="st19" d="M187.1,151.1c0-0.5-0.7-0.4-1.7-1.4c-0.6-0.6-0.9-1.6-1-2.4c-0.1-0.6-0.6-0.8-0.8-0.1c-0.8,3.6-2.4,7-4,10.3
			c-1.3,2.7-3,5.1-4.2,7.9c-1.1,2.5-1.2,5-1.7,7.5c-0.2,1-0.6,6.9-0.4,8.9c0.1,0.6,0.9-0.9,0.8-1.5c0-0.4,1.5-7.4,2.1-8.7
			c0.8-1.7,2-3.2,3.1-4.7c2.2-3.1,4.1-6.4,5.7-9.8c0.2-0.5-0.3-0.6-0.6-0.7c-0.4-0.1-1.3-0.4-2-0.6c1.1-0.4,2.4-0.6,3.6-1
			C186.9,154.5,187.1,152.3,187.1,151.1z"/>
	</g>
	<g>
		<ellipse class="st10" cx="85.3" cy="218" rx="3.9" ry="4.9"/>
		<path class="st9" d="M96.5,331.1c-0.5-3.7-1.4-7.4-1.5-11.2c-0.1-2.1,0.1-4.2-0.1-6.3c-0.2-1.9-0.5-4.1-2-5.4
			c-2.2-2-3.9-0.8-5.7,1c-2.5,2.4-3.4,4.9-2.9,8.3c0.3,1.8,0.9,3.5,1.1,5.3c0.3,1.8,0.2,3.6,0.8,5.4c1,3.3,3.4,5.3,6.7,6
			C95.6,334.8,96.8,334.1,96.5,331.1z"/>
		<path class="st9" d="M86.6,290c-0.9-4.2-6.8-5.2-9.3-2c-1.5,1.9-2.3,4.3-3.2,6.5c-0.9,2.3-2.4,4.8-2.3,7.3
			c0.1,2.1,1.7,3.5,3.9,3.5c1.3,0,1-0.1,1.6-1.6c0.5-1.1,1-1.8,1.9-2.6C81.9,298.6,87.5,294.4,86.6,290z"/>
		<path class="st11" d="M82.7,285.3c-1.6-0.9-3.7-2.2-5.6-2c-1.9,0.3-2.6,2.1-4,3.2c-0.8,0.7-1.8,1.1-2.8,1.5
			c-0.3,0.1-2.2,0.4-2.4,0.7c-1.6,1.8,2.6,0.6,3.3,0.5c0.3,0,2.1-0.3,2.4,0c0.3,0.3-0.1,2.8-0.1,3.2c-0.3,2.2-1.3,3.6-2.8,5.1
			c-1.7,1.7-2.7,2.8-2.5,5.3c0.2,1.7,0.7,3.1,1.6,4.6c1.6,2.9,5.6,4.8,7,0.7c0.3-0.8,1-3.3,0.8-4.1c-0.5-1.6-2,0.2-3.4-0.7
			c-3.2-2,1.6-9,2.7-11c0.8-1.5,1.8-3,3-4.2C80.3,287.8,83.7,285.8,82.7,285.3z"/>
		<path class="st11" d="M98.1,332c-0.4-0.9-0.9-3.2-1.7-3.8c-0.6-0.5-2,0.1-2.7,0.2c-2.7,0.3-5.1-0.1-6.2-2.9
			c-0.9-2.2-0.6-4.7-0.9-7.1c-0.2-1.4-0.5-2.9-0.6-4.4c-0.1-1.7,0.6-2.9,0.8-4.4c0.2-2.2-2.2,0-3.1,1c-2.1,2.4-1.1,5.5-1.2,8.3
			c-0.1,1.7-0.9,3.3-1.2,5c-0.1,0.8-0.4,1.6,0.7,1.1c1.1-0.5,1.5-3.5,2.1-4.5c1.4,2.7,0.8,6.2,1.1,9.2c0.3,2.7,1.8,4.5,4.3,5.8
			C92.9,337.3,100.7,338.1,98.1,332z"/>
		<linearGradient id="SVGID_5_" gradientUnits="userSpaceOnUse" x1="103.2706" y1="220.4389" x2="103.2706" y2="296.558">
			<stop  offset="0" style="stop-color:#EB816F"/>
			<stop  offset="0.1741" style="stop-color:#E67865"/>
			<stop  offset="0.6855" style="stop-color:#D9614D"/>
			<stop  offset="1" style="stop-color:#D45944"/>
		</linearGradient>
		<path class="st20" d="M125,271.8c0-5-0.5-11.4-4.3-21.8c-2-5.6-7.4-13.9-8.3-17.7c-0.8-3.4-0.7-7.4-2.3-10.7
			c-0.8-1.7-8.3-0.5-10.6-0.5c-3.6-0.1-12.1-1.5-13.5,0.3c-1.9,2.4-2.5,5.6-1.7,8.5c0.8,3,3.6,4.3,6.3,5.2c2.9,1,7.3,1.5,9.6,3.6
			c1.2,1.1,1.8,2.8,2.5,4.3c1,2.2,2.1,4.5,3.1,6.7c2,4.4,4.1,8.8,6.1,13.2c1.6,3.4,3.8,7.4-0.7,9.5c-3.9,1.8-8.3,2.5-12.1,4.5
			c-3.2,1.6-5.6,4.4-8.5,6.4c-1.2,0.9-2.5,1.7-3.9,2.2c-1.2,0.4-3.9,0.2-4.6,1c-0.8,0.8-0.6,3.7-0.5,4.8c0.2,1.6,0.6,3.8,1.9,5
			c1.6,1.4,2.8-0.4,4.4-1.3c2-1.1,4.1-2,6-3.2c4-2.6,8.4-3.9,13-4.9c4.6-1,9.1-2.7,13.3-5c2.2-1.2,3-1.8,3.8-4.2
			C124.7,275.4,125,274,125,271.8z"/>
		<path class="st12" d="M115.9,268.7c-1.1-5.4-4.6-9.9-6.8-15c-2.4-5.7-5.1-11.2-8.2-16.5c4.1-0.1,4.9-5.8,5.4-6.4
			c1.6-2.3,4.2-3.4,3.8-6.7c-0.6-5.1-4.2-3.3-7.4-3.3c-3.9-0.1-7.7-0.2-11.6-0.7c-1.8-0.3-3.7-0.6-5.5-0.7c-1.2-0.1-4.7-0.6-5.6,0
			c-1,0.6-1,1.7-1.2,2.8c-0.6,2.3-2.3,4.8-2.3,8.7c0,8,6.3,13,8.7,18.4c3.2,7.1,9,12.8,13.3,19.3c1.9,2.9,3.9,5.8,2.1,9.3
			c-1.7,3.4-4.7,5.9-6.2,9.4c-1.5,3.5-2.2,7.2-3.2,10.8c-0.9,3.4-3.4,6.5-3.7,9.9c-0.4,3.1-0.2,6.4,3.1,7.8c1.3,0.6,2.8,0.7,4.1,0.1
			c1.7-0.8,1.7-2.9,2.1-4.6c1.1-4.1,2.4-8.1,4.3-11.9c2-4,4.7-7.4,7.3-11.1c2.1-3,3.6-6.5,6-9.4c0.9-1.1,1.9-1.9,2.2-3.5
			C117.1,273.4,116.3,270.9,115.9,268.7z"/>
		<path class="st21" d="M103.4,220.7c-0.3-0.6-1.2-0.1-0.9,0.5c0.9,1.8,2.1,3.2,1.3,5.3c-0.2,0.6-0.6,0.8-0.7,1.6
			c-0.2,1.2,0.3,2.5,0.2,3.7c-0.2,1.9-1,3.6-2.2,5.1c-0.4,0.5,0.3,1.2,0.7,0.7c2.1-2.5,2.4-4.8,2.5-8c0.1-2.6,0.8-2.1,1-3.3
			c0-0.3,0.2-0.5,0.2-0.8C105.6,223.9,104.1,222,103.4,220.7z"/>
		<path class="st9" d="M120.8,110.7c1.2-2.4,0.6-2.9-1.5-4.6c-0.4-0.3-1-0.6-1.3-1c-0.4-0.5-0.4-1.1-0.8-1.6
			c-0.6-0.7-1.1-0.9-1.2,0.4c-1-0.7-2.7,4.5-2.6,5.2c0.3,1.8,2.7,3.6,3.6,5.2c2.2,4-1.5,6.7-1.8,10.6c-0.1,2,1.5,3.2,3.4,3.7
			c2.8,0.6,2.1-1.5,2.2-3.6c0.1-2.5,0.7-4.5,1.3-6.9C122.8,115.6,121.7,113.1,120.8,110.7z"/>
		<g>
			<path class="st7" d="M102.2,156.6c0.4-2-0.5-3.9-1.2-5.7c-0.7-1.6-1.5-3.2-1.3-5c0.1-1.4,0.7-2.7,1-4c0.5-2,0-5.5-1.1-7.2
				c-1.9-3.1-3.3-3.1-5.7-4.5c-3.4-2.6-8.8-2.9-12.3-0.6c-1.5,1-2.1,2.1-3,3.5c-1.1,1.7-2.7,2.2-4.5,3c-2.8,1.3-3.7,3-3.7,6.1
				c0,1.2,0.2,2.4-0.2,3.6c-0.4,1.1-1.2,2-1.8,2.9c-1,1.4-2,3-2.6,4.7c-1.2,3.7,0,6.3,2.1,9.3c2.2,3.1,4.5,6.3,7.7,8.5
				c7.8,5.2,15.6,4.1,19.8,2c2.9-1.5,5.9-4.9,5.3-8.2c-0.3-1.9-0.5-3.8,0.3-5.7C101.4,158.4,102,157.6,102.2,156.6z"/>
			<path class="st10" d="M96.7,165.3c-0.7-2.3-1.4-4.5-1.5-6.9c-0.2-2.2,1-4.3,1.4-6.4c0.7-3.1,0-6.9-2-9.5
				c-1.9-2.6-5.5-3.5-8.6-2.4c-3.4,1.3-4.8,4.5-4.9,7.7c-0.1,3.7,3.8,15.2,4.3,17.2c0.6,2,1.6,3.2,3.2,4.4c2,1.4,5.6,3.6,7.9,2.2
				C98.1,170.6,97.3,167.2,96.7,165.3z"/>
			<path class="st9" d="M95.4,137c-2.2-2.2-5.9-2.7-8.4-1.9c-2.9,0.9-5.6,3-6,7.1c-0.1,0.8,0,2-0.4,2.7c-0.2,0.3-0.9,1-1.2,1.4
				c-0.6,1.2-0.7,2.3-0.4,3.3c0.4,1.5,1.2,2.5,2.4,3.2c0.5,0.3,0.8,0.3,1.1,0.5c0.5,0.4,1,1.2,1.5,1.7c4,4.4,9.4,5.5,12.7-0.9
				C99.3,148.9,99.7,141.3,95.4,137z"/>
			<path class="st16" d="M93.6,152.9c-1.6,0.4-3.2,0.2-4.8-0.2c-0.3-0.1-0.4,0.4-0.1,0.6c1.5,1.1,3.9,1.6,5.2,0
				C94.1,153.2,93.9,152.8,93.6,152.9z"/>
			<path class="st7" d="M96.6,136.9c-2.2-3-7.2-4.5-11.5-3.1c-4.9,1.5-7.8,5.4-7.8,10.2c0,4.5,2,8.3,4.7,9.4
				c0.5,0.2,0.3-0.6-0.2-0.8c-0.7-0.3-1.3-0.9-1.6-1.8c-0.4-1.2-1.6-5.2,1.2-5.1c0.2,0,0.3,0,0.5-0.1c1.3-1.4,1.8-3.4,2.9-5
				c1.5-2.2,4.3-4.1,6.9-4.4c1.9,0,4.5,2.1,5.4,5.6c0.5,2,0.5,4,1.6,5.7c0.3,0.5,0.9,0.1,0.9-0.5C99.4,142.6,99,140.3,96.6,136.9z"
				/>
			<path class="st8" d="M81.8,135c3.1-6.2,10.1-6.3,13.9-3c2.9,2.5,1.8,7.2,3.7,9.3c1.4,1.5,1.3-4.8,0.2-6.5
				c-1.9-3.1-3.3-3.1-5.7-4.5c-3.4-2.6-8.8-2.9-12.3-0.6c-1.5,1-2.1,2.1-3,3.5c-1.1,1.7-2.7,2.2-4.5,3c-2.8,1.3-3.7,3-3.7,6.1
				c0,1.2,0.2,2.4-0.2,3.6c-0.4,1.1-1.2,2-1.8,2.9c-1,1.4-2,3-2.6,4.7c-1.2,3.7,0,6.3,2.1,9.3c2.2,3.1,11.4,9.5,9.9,3.6
				C76.8,162,70,161,74.4,152c1.9-3.8-1.4-8.4,0.6-11.7C76.3,138.2,80.1,138.2,81.8,135z"/>
		</g>
		<path class="st9" d="M47.9,150.7c-2.1-2.5-5.3-3.1-6.8-6.4c-1.2-2.6-0.4-5.6-2.2-8.2c-0.8-1.1-1.9-1.5-3-2.3c-1.4-1-2-2.2-2.6-0.1
			c-0.2,0.6,0,1-0.4,1.5c-0.2,0.3-0.9,0.3-1.2,0.7c-0.4,0.5-0.1,1-0.2,1.5c-0.2,0.7-0.6,1.1-0.8,1.7c-0.8,2.1,1,4.3,2.2,6.2
			c1.7,2.6,4.5,4.2,6.7,6.3c1.7,1.6,3.5,5,5.9,5.6C49.5,158.2,49.8,152.8,47.9,150.7z"/>
		<path class="st22" d="M52.3,155.4c-0.3-2.1-1.7-3.2-3.2-4.6c-1.6-1.4-1.8-0.8-2,1.4c-0.1,1.6,0.7,4-2,4.2
			c-1.6,0.1-2.4-1.6-2.9-1.1c-0.6,0.6,1.5,2.2,2,2.6c1.4,1,2.4,2,4.2,1.8C50.8,159.4,52.6,157.9,52.3,155.4z"/>
		<path class="st22" d="M121.4,126.3c-0.4-0.6-1.7-0.3-2.2-0.4c-1.3-0.2-2-0.9-3.1-1.3c-0.8-0.3-0.6-0.6-1.2,0
			c-0.6,0.6-0.9,2.7-0.8,3.4c0.2,1.8,1.7,3,3.5,3.2c1.2,0.2,2.7-0.2,3.3-1.3C121.2,129.5,121.8,127,121.4,126.3z"/>
		<linearGradient id="SVGID_6_" gradientUnits="userSpaceOnUse" x1="109.0213" y1="167.0595" x2="78.766" y2="219.4632">
			<stop  offset="0" style="stop-color:#FFFFFF"/>
			<stop  offset="0.4031" style="stop-color:#F6F6F6"/>
			<stop  offset="1" style="stop-color:#EDEDED"/>
		</linearGradient>
		<path class="st23" d="M114.5,206.5c-1.6-2.6-2.6-7.7-2.7-10.1c0-1.5,0-2.8-0.5-4.2c-0.4-1.2-1.6-2.6-1.6-4
			c-0.1-2.3,1.7-4.5,1.5-6.9c-0.2-2.6-2-4.7-3.2-6.8c-1.6-2.6-2.5-5.6-4.2-8.2c-0.8-1.2-1.6-2.5-2.6-3.5c-1.1-1.1-1.3-1-2.6-0.2
			c-2.7,1.6-2.7,3.7-2.9,6.7c-1.2-2-1.4-4.6-3.4-5.9c-1.8-1.2-3.3-1.2-5.2-1c-1.8,0.2-3.1-0.7-4.7-1c-1.7-0.3-2,0.3-3.1,1.4
			c-0.4,0.4-0.7,0.9-1.2,1.1c-0.6,0.2-1.4-0.2-1.8,0.1c-1.1,0.8-0.2,3,0.2,3.8c0.9,1.5,2.2,2.7,3.2,4.1c1.4,2,2.4,4.4,3.2,6.7
			c1.7,4.9,0.9,8.4-0.7,13.2c-0.7,2.1-0.7,4.1-1,6.3c-0.2,2.1-1.1,3.6-1.8,5.6c-0.8,2.1-0.5,4-0.2,6.1c0.3,2.1,0.4,4.1,0.5,6.2
			c0.1,1.1-0.2,5,1.5,4.6c1.8-0.5,2.7-4.9,3.5-6.3c1.2,1.5,1.2,3.6,2.4,5.2c1.3,1.6,3.5,2.6,5.4,3.2c3.6,1.2,8,1.8,11.7,0.7
			c3.5-1.1,6.9-3.7,9.6-6.2c1.2-1.1,2.8-2.6,3.2-4.2C117.6,210.8,115.6,208.3,114.5,206.5z"/>
		<path class="st24" d="M120.8,129.8c-1.3,1.4-5.9-3.7-6.6-3.4c-1.2,0.4-1,3.1-1.4,4.2c-0.7,2-1.6,3.9-2.4,5.8
			c-1.8,4.2-6.1,16.5-7,18.2c-0.9,1.6-2.3,2.8-3.3,4.4c-0.9,1.4-0.8,2.2-0.6,3.9c0.1,2,1.3,3.2,2.3,3.6c3.7,1.5,7.7,1,11.5,2.1
			c1.8,0.5,4.3,2.1,6.2,2.2c1.8,0.1,0.7-1.3-0.2-2.2c-2.6-2.6-6.7-4.4-10.1-5.6c3.9-5.5,6.4-11.9,8.4-18.3c1-3.1,1.8-6.2,2.7-9.3
			c0.4-1.3,1-3.3,1.3-4.8C121.7,129.5,121.7,128.8,120.8,129.8z"/>
		<path class="st18" d="M111.7,196.3c0-1.5,0-2.8-0.5-4.2c-0.4-1.2-1.6-2.6-1.6-4c-0.1-2.3,1.7-4.5,1.5-6.9
			c-0.1-1.2-0.6-2.3-1.1-3.4c-1.2-0.9-1.9-0.7-0.5,2.7c2.9,7.2-14.4,6.3-16.8,6.1c-3.1-0.2-5-2.4-7.4-1.9c-0.5,0.1-1,0.2-1.6,0.4
			c-0.2,2.1-0.8,4.2-1.5,6.6c-0.7,2.1-0.7,4.1-1,6.3c-0.2,2.1-1.1,3.6-1.8,5.6c-0.8,2.1-0.5,4-0.2,6.1c0.3,2.1,0.4,4.1,0.5,6.2
			c0,0.4,0,1.3,0.1,2.2c4.2-4.1,8-18.1,11.2-15.9c5.2,3.4,3.9-4.3,11.2-7c2-0.8,5.8-1.1,6.4,0.8c1.3,4.7,2.7,5.6,3.9,5
			C112,199.3,111.8,197.5,111.7,196.3z"/>
		<path class="st24" d="M84.5,167.8c-2.5-2.3-6.3-4.6-9.8-4.9c-1.4-0.1-2.8,0.4-4.3,0.4c-2.2,0.1-4-1.2-5.8-2.4
			c-3-1.9-6.2-3.3-9.1-5.2c-1.4-0.9-2.6-2-3.8-3.2c-0.4-0.3-2.2-2.5-2.5-1.8c-0.2,0.4,1.4,1.4,1.3,3.9c-0.1,1.3-0.4,2.6-1.6,3.3
			c-1.2,0.7-2.4,0.7-4,0.2c-0.7-0.2-2-1.2-1.5,0.1c0.2,0.6,2,1.3,2.6,1.6c1.7,0.9,3.2,2.4,4.6,3.6c2.9,2.4,4.7,5.4,8.1,7.2
			c3.1,1.6,6.4,3.3,9.2,5.4c1.5,1.1,3.2,2.3,4.3,3.7c1.1,1.4,1.4,3.1,2.1,4.7c0.5,1.3,1.2,2.1,2,3.2c0.8,1.3,0.5,2.2,0.2,3.7
			c-2.1,9.4-4,13.3-9.5,20.6c-1.2,1.6-2,4.9,1.1,6.3c1.7,0.8,4.7,0.7,6.5,0.4c5.2-1,9.6-8.4,12.4-17.2c1-3.2,1.9-11.1,2-13.6
			C89.2,181.1,90.2,173.1,84.5,167.8z"/>
		<path class="st14" d="M89,176.1c-1-3.2-2.1-6.4-4.7-8.7c-0.8-0.7-5.8-4.4-6.6-3.3c-0.3,0.4,5.4,5.1,6.1,6c1.9,2.8,2.2,6.2,2.6,9.4
			c0.5,3.6,0.8,7.1,0.6,10.7c0,0.7-0.6,7.2,0.9,6.1c0.4-0.3,0.6-2.5,0.7-3c0.4-1.9,0.5-3.8,0.6-5.7C89.5,183.7,90.2,179.8,89,176.1z
			"/>
		<path class="st14" d="M131.5,199c-0.6-4.1-3.2-7.5-4.2-11.4c-1-3.9-1.4-7.8-3.1-11.5c-1.8-3.9-3.4-6.9-7.3-9
			c-3.7-2.1-9.2-1.6-13.4-1.6c-2.2,0-3.6-1.2-2.8,1.2c0.7,2,2.3,3.9,3.6,5.4c3.6,3.8,7,7.2,6.3,11.6c-0.4,2.5-3,3.9-2.7,6
			c0.4,2.3,1.6,3,1.7,5.5c0.1,4.6,1.7,7.2,4.3,10.9c0.9,1.2,1.5,2.9,2.9,3.2c2.1,0.3,5-1.1,6.8-2C126.9,205.7,132.2,203.4,131.5,199
			z"/>
		<linearGradient id="SVGID_7_" gradientUnits="userSpaceOnUse" x1="100.5741" y1="219.7833" x2="100.5741" y2="163.3254">
			<stop  offset="0" style="stop-color:#DADADA"/>
			<stop  offset="1" style="stop-color:#C6C6C6"/>
		</linearGradient>
		<path class="st25" d="M110.6,219.2c-0.5-2-1.6-3.7-2.2-5.7c-0.7-2.2-1-4.5-1.7-6.7c-1.3-4.4-2.2-8.8-3.1-13.2
			c-0.8-4.1,1.5-7.4-0.5-11.2c-1.9-3.6-5.2-7.4-7.1-11.1c-0.4-0.7-4.1-9.4-5.4-7.8c-0.4,0.5,2.1,2.8,2.5,3.5
			c0.9,1.8,1.4,3.8,2.4,5.5c2,3.5,5.4,7.1,7,10.8c0.7,1.7,0.5,3.4,0.4,5.3c-0.1,2.4-0.3,3.6,0.2,5.9c0.9,4.6,1.9,9.8,3.2,14.4
			c0.6,2.4,1,4.7,2,7c0.4,0.9,0.7,2.2,1.2,3C109.6,219.2,110.9,220.5,110.6,219.2z"/>
		<path class="st14" d="M111.4,159.3c-0.7,1.2-1.5,2.5-2.3,3.6c0,0-0.4-0.1-1-0.3c-3.2-0.8-4.2-2.5-8.7-2.1c0.1-0.5,0.3-1,0.7-1.6
			c0.9-1.5,2.3-2.7,3.2-4.2C107.6,152.8,110.9,156.2,111.4,159.3z"/>
	</g>
	<g>
		<path class="st26" d="M277.2,324.4c-0.2-1.1-0.4-3.1-0.5-4.1c-0.1-1.2-1.9-2.2-4.3-1.8c-1.4,0.2-3.7,1.1-3.5,2.4
			c0.1,0.9,0.6,3.4,0.8,4.3c0.6,2.5,1.1,3.6,4,3.5C277,328.6,277.7,327.5,277.2,324.4z"/>
		<path class="st26" d="M304.1,318.4c-1.2-1.2-4.8-0.3-6.1,0.3c-2,0.8-1.6,3.7-0.3,5.2c1.2,1.4,4.8,1.7,6.2,0.5
			C305,323.5,305.3,319.5,304.1,318.4z"/>
		<path class="st9" d="M307.7,121.3c-0.5-5.1-1.6-10.1-1.9-15.2c-0.3-4.8-0.3-9.7-0.4-14.6c0-1.5,0.1-3.8-1.5-4.4
			c-0.9-0.3-2.9,0-3.9,0c-1.9,0.1-2.6,0-3.7,1.6c-0.5,0.7-0.9,0.7-1.1,1.6c-0.2,1,0.8,2.3,1,2.7c0.9,1.8,2.2,3.4,3.3,5.1
			c1.3,2.1,1.8,3.5,1.8,6.1c0.1,2.4-0.4,4.4-0.8,6.7c-0.3,2.2-0.3,4.5-0.7,6.8c-0.6,4.1-1.1,6.7,3.5,7.9
			C306.5,126.3,308.1,124.8,307.7,121.3z"/>
		<path class="st10" d="M285.2,151.8c-0.6-2.1-4.7,2-6.7,2.2c-1.7,0.2-3.6-0.3-5.3,0.3c-1.8,0.6-2.4,2.1-2,4c0.4,1.6,1.2,3,1.4,4.7
			c0.2,1.6,0.3,3.3,0.6,4.9c0.4,2.1,1.2,5.6,3.8,5.6c2.6,0,3.9-3.2,4.9-5.2c1.3-2.7,2.5-4.8,2.8-7.9
			C285,158.9,285.5,153,285.2,151.8z"/>
		<linearGradient id="SVGID_8_" gradientUnits="userSpaceOnUse" x1="249.8686" y1="293.7061" x2="324.7199" y2="250.4907">
			<stop  offset="0" style="stop-color:#305B85"/>
			<stop  offset="0.3561" style="stop-color:#2F5881"/>
			<stop  offset="0.7245" style="stop-color:#2A5074"/>
			<stop  offset="1" style="stop-color:#254666"/>
		</linearGradient>
		<path class="st27" d="M309.2,232.8c-0.1-3.3,0.2-8.4-1.3-11.5c-1.3-2.6-5.9-2-8.2-1.7c-4.5,0.6-8,1.8-12.4,2.8
			c-4.6,1-9.3,0.5-13.8,0.7c-3.4,0.1-6.1,3.3-7.2,6.4c-0.7,2.1-0.1,3.6,0.8,5.5c0.9,2,1.3,3.9,1.1,6.1c-0.4,4.5-2,8.9-1.8,13.4
			c0.1,2.1,0.5,4.1,0.6,6.2c0.1,2.3-0.4,4.5-0.3,6.8c0.1,1.7,0.9,3.1,0.7,4.8c-0.1,0.9-0.5,1.7-0.5,2.6c0,0.9,0.2,1.9,0.2,2.8
			c-0.2,1.8-1.2,3.4-1.6,5.1c-0.5,2.3-0.5,4.8-0.5,7.1c0.1,4.7,0.6,9.5,0.5,14.2c-0.1,4.5-0.8,9-1.1,13.5c-0.1,2.7,2.2,3.9,5.7,4.4
			c4.1,0.6,8,0.5,8-2.5c0-2.6-0.2-4.1-0.4-6.4c-0.3-4,0.4-8,0.6-12c0.2-5.3,0.1-10.5,0.8-15.7c0.3-2.6,0.8-5.1,1.4-7.6
			c0.6-2.4,0.1-4.6,0.5-6.9c0.4-2.2,0.7-4.4,1.2-6.6c0.5-2.4,1.6-4.6,2.5-6.9c0.9-2.3,1.7-4.7,2.2-7.1c0.5-2,0.7-4.2,2-5.9
			c2,1.3,1.7,4.1,1.7,6.1c0.1,3.1,0.9,6.3,0.6,9.4c-0.3,2.8-1.8,5.4-1.6,8.2c0.3,2.9,2.1,5.4,2.5,8.3c0.3,2.8,1.1,5.3,1,8.2
			c-0.1,3.4-0.3,6.7-0.2,10c0.4,6.5,1.7,13,1.4,19.6c-0.1,2.2-0.4,4.6,1.8,5.9c2,1.2,4.5,0.7,6.6,0.3c2.7-0.6,3.6-1.3,3.4-4.2
			c-0.3-3.1,0.2-6,0.6-9.1c0.4-3.2,0.4-6.4,0.1-9.6c-0.3-3.4,0.3-6.5,0.3-9.9c0-1.6-0.6-2.9-0.8-4.4c-0.2-1.3-0.1-2.7-0.1-4
			c0-1.4,0.1-2.8-0.2-4.1c-0.4-1.6-1.6-2.7-2-4.2c-0.3-1.3,0.2-2.4,0.8-3.5c0.7-1.5,1.2-2.8,1.3-4.6c0.2-3.1-0.5-6.3-0.1-9.4
			c0.5-3.3,1.9-6.4,2.5-9.7C309.1,240.1,309.3,236.5,309.2,232.8z"/>
		<path class="st28" d="M281.4,338.8c-0.3-3-2.5-5.5-3-8.6c-0.3-1.6-0.2-3.3-0.6-4.8c-0.7-2.7-0.5-1.5-1.6-0.6
			c-1.8,1.4-3.3,2.5-5.4,1.6c-1.2-0.5-1.2-4-1.4,0.4c-0.1,1.3,0.4,3.5,0.5,4.9c0.4,5.6-1.9,11.3,3.4,15.2c2.2,1.6,5.1,3.8,7.3,2.1
			C283,347,282.3,341.6,281.4,338.8z"/>
		<path class="st28" d="M306.1,332.4c0-2.9-1-5.7-1-8.6c0-0.9,0.3-1.5-0.8-1.5c-0.9,0-2.3,1.1-3.4,1.2c-1.3,0.1-2.5-0.8-3.6-0.8
			c-1,0-0.5-0.1-0.7,0.7c-0.3,1.2,0.1,2.7-0.2,4c-0.3,1.3-1,2.5-1.5,3.8c-1.8,3.9-3.8,14.9,1.2,15.3c2.4,0.2,4.6-2.4,6.4-4.6
			C304.8,339.1,306.6,335.4,306.1,332.4z"/>
		<path class="st29" d="M286,240.2c-1.1-1.1-2-2.2-2.2-3.8c-0.2-1.3,0-2.9,0.2-4.2c0.2-2.6,0.6-6.4,0.5-9.1c0-0.6-1-0.6-1,0
			c0.2,3.4-0.5,8.2-0.7,11.6c-0.2,2.6,0.7,4.3,2.5,6.1C285.7,241.4,286.4,240.7,286,240.2z"/>
		<path class="st9" d="M286.5,147.3c0.4-6-1.4-12.5-8.3-12.7c-2.7-0.1-5.5,0.5-7.4,2.6c-1.8,2-2,3.9-2.2,6.5
			c-0.5,5.8-0.4,14.8,5,18.5c5.5,3.8,10.8-3.4,11.7-8.3c1.5,0.8,2.8-2.2,2.9-4.3C288.1,148.1,287.4,147.3,286.5,147.3z"/>
		<path class="st22" d="M311,211.4c-0.5-3.9-3.8-7.5-4.5-8.8c-2.4-4.5-1.9-10.6-2-15.5c-0.1-3.1,0.4-6.1,0.1-9.2
			c-0.3-3.3-0.9-6.4-0.1-9.7c0.6-2.7,1.4-5.1,1.4-8c0-1.5-0.2-3,0-4.5c0.2-1.6,0.8-3.1,0.7-4.8c-0.2-2.7-0.7-4.6,0-7.4
			c0.7-3.1,1.1-5.7,1.1-8.9c0-1.2,0-2.6,0.5-3.7c0.6-1.3,1.7-2,1.7-3.5c0-2.1-1.8-4.7-3.6-5.7c-1.6-0.8-4.9-1.4-6.5-0.5
			c-2.1,1.1-1,5.4-1.1,7.3c-0.1,3.2-1.3,5.9-2.3,8.9c-1.1,3.1-1.9,6.4-2.4,9.7c-0.3,1.8-0.3,3.4-0.3,5.2c0,1.1,0.2,2.5-0.4,3.5
			c-0.7,1.3-2.3,1.5-3.4,2.2c-0.9,0.6-1.5,1.4-2.7,1.5c-0.6,0-0.9-0.4-1.5-0.3c-0.7,0.1-1.3,0.6-1.9,0.9c-1,0.6-2.2,0.9-3.2,1.6
			c-2.5,1.9-2.2,5.3-3.8,7.8c-1-2.7-4.4-5.8-7.5-4.3c-1,0.5-2.4,1.9-2.5,3.1c-0.2,2.3,1.9,0.5,2.8,1.9c0.8,1.2-1,2.2-1.8,2.8
			c-1.5,1.2-2.7,2.5-3.9,4c-2.6,3.4-4.4,7.4-4.3,11.7c0.1,4.4,1.6,8.7,1.1,13.2c-0.4,4.5-2.2,8.6-0.2,13c1,2.2,3.8,7,6.9,5.8
			c1.2-0.5,1.4-2,2.9-2.1c1.6-0.1,2.2,1.1,4,1.2c5.4,0.2,9.1,0,17.1-1.7c4.8-1,9.6-1.7,14.6-1.7C309.2,216.4,311.5,215.8,311,211.4z
			"/>
		<path class="st9" d="M275.9,188.1c-0.4-1.2-1.4-4-2.3-4.8c-0.9-0.9-2.7-0.8-3.9-0.9c-3.1-0.3-3.6,3.4-4,6c-0.3,1.9-0.4,3.8-1,5.6
			c-0.6,1.7-1.1,3.1-1.2,5c-0.1,1.7-0.3,3.2-0.9,4.8c-0.7,2-1.8,3.9-1.3,6.2c0.4,1.5,1.4,2.7,2.6,3.6c0.7,0.6,2.9,2.3,3.8,2
			c2.7-0.6,1.8-8.5,1.6-10.5c-0.2-1.7-0.8-3.5-0.4-5.2c0.3-1.4,1.4-2.2,2.2-3.3c1.1-1.4,1.5-3.1,2.4-4.6
			C274.3,190.8,276.4,189.6,275.9,188.1z"/>
		<linearGradient id="SVGID_9_" gradientUnits="userSpaceOnUse" x1="278.8524" y1="219.8137" x2="278.8524" y2="167.2338">
			<stop  offset="0" style="stop-color:#DADADA"/>
			<stop  offset="1" style="stop-color:#C6C6C6"/>
		</linearGradient>
		<path class="st30" d="M282.5,211.2c-0.5-2.7-1.3-5.6-1.3-8.3c0-2.4,0-3.9-1-6.1c-1-2.6-2.9-4.9-2.3-7.8c0.7-3.5-1.2-5.4-2.6-8.4
			c-2.1-4.6,2.9-8.3,1.4-13c-0.2-0.6-1.1-0.3-0.9,0.3c1.3,4.3-3.2,7.8-1.7,12.2c0.5,1.6,1.6,3,2.3,4.4c0.6,1.3,0.9,2.5,0.6,3.9
			c-0.2,0.9-0.5,1.6-0.4,2.6c0.2,1.8,1.4,3.3,2.1,4.9c0.6,1.3,1.2,2.7,1.4,4.1c0.2,1.4-0.1,2.8,0.1,4.3c0.6,5.1,1.7,10.1,2.6,15.2
			c0.1,0.6,1,0.4,0.9-0.3C283.4,216.5,282.9,213.9,282.5,211.2z"/>
		<path class="st7" d="M286.7,137.9c0.4-0.5,0.2-2.3-0.3-3.3c-0.8-1.4-2.6-2.6-4.1-2.8c-3.6-0.5-7.3-4.3-13.4-3.1
			c-2,0.4-3.1,1-2.3,3.1c0.2,0.6,1.3,3,1.3,3.7c0,1-0.5,1.9-0.8,2.9c-0.6,1.7-1,3.4-0.3,5.5c0.3,0.8,0.6,1.5,0.8,2.3
			c0.2,0.7,0.1,3.4,0.4,3.8c0.7,1.1,0.7-1.9,0.7-2.6c0-1.1,0-4.1,0.2-5.2c0.4-2.5,1.1-4.1,4-4.2c1.5,0,3.1,0.4,4.6,0.6
			c2,0.2,3.4-0.2,5.4,0.3c4.6,1.2,2.5,6.3,2.2,9.3c0,0.5-0.5,2.2,0,2.5c0.8,0.6,0.7-0.6,0.9-0.9c0.9-1.2,1.9-2.1,2.5-3.5
			c0.6-1.5,1.5-3.2,1-5C289.1,140,288.3,138.6,286.7,137.9z"/>
		<path class="st31" d="M307.5,219.3c0.1-0.7,0.3-2.5-0.2-3c-0.4-0.4-1.4-0.4-2.8-0.4c-2.7-0.1-5.4,0.2-8,0.6
			c-2.7,0.4-7.7,1.5-10.3,2.1c-0.8,0.2-1.4,0.4-1.4,0.9c0,0.6,0.2,2.4,0.3,2.9c0.1,0.5,0.2,0.7,1.4,0.5c2.1-0.4,5.6-1.3,7.8-1.8
			c2.3-0.5,4.7-0.9,7.1-1.1C303.7,219.8,307.4,220.4,307.5,219.3z"/>
		<path class="st31" d="M279.9,222.8c0-0.9,0-2.1-0.1-2.6c0-0.8-0.6-0.7-1.9-0.7c-1.4,0-5-0.1-6.4-0.1c-0.5,0-0.8-0.1-1,0.6
			c-0.2,0.7-0.3,2.1-0.2,2.5c0.1,0.5,0.5,0.7,0.9,0.8c0.6,0.1,6.1,0.1,7.6,0.1C279.6,223.5,280,223.3,279.9,222.8z"/>
		<path class="st32" d="M286.1,219.4c-0.1-0.6-0.3-0.9-0.9-0.9c-1.5,0-4.5,0.4-5,0.5c-1.2,0.1-1.6,0-1.5,1.1c0,0.4,0.1,1.8,0.2,2.7
			c0.1,0.6,0.5,0.8,1.1,0.8c1.5,0,4.3-0.1,5.5-0.3c0.7-0.1,0.9-0.6,0.8-1.1C286.3,221.2,286.3,220.4,286.1,219.4z"/>
		<path class="st16" d="M279,154.1c-2-0.5-4-0.7-6.1-0.2c-0.4,0.1-0.2,0.6,0.1,0.7c1.8,0.5,5.3,0.3,5.9,0.1
			C279.2,154.6,279.4,154.2,279,154.1z"/>
		<path class="st18" d="M309.7,207.6c-3.5-1.1-7.1-3.6-7.6-9.6c-0.8-9.1-4-12.8-4.5-15.9c-0.9-6.2,1.8-10.2,1.8-17.5
			c0-7.2-1.8-15.5-1.3-21.5c0.4-4.9,0.6-12.5,4-14c1.4-0.7,4.2,0.8,5.8,1.9c-0.5,1.1-0.4,2.5-0.4,3.7c0,3.2-0.3,5.8-1.1,8.9
			c-0.7,2.8-0.2,4.6,0,7.4c0.1,1.7-0.5,3.2-0.7,4.8c-0.1,1.5,0,3,0,4.5c0,2.9-0.8,5.3-1.4,8c-0.7,3.3-0.2,6.4,0.1,9.7
			c0.3,3.1-0.1,6.1-0.1,9.2c0.1,5-0.4,11.1,2,15.5C306.9,203.5,308.5,205.3,309.7,207.6z"/>
		<path class="st8" d="M284.9,133c-0.1,0.1-0.3,0.2-0.5,0.3c-1.5,0.5-3.5-2.4-7.9-1.7c-3.2,0.5-4.9-2.4-6.7-1.2
			c-1.1,0.7-1,3-0.8,5.1c0.1,0.8-0.3,2.3-1.2,4.2c-0.8,1.7,0.2,4.7-0.4,5.6c-0.2-0.4-0.3-0.9-0.5-1.3c-0.7-2.1-0.3-3.7,0.3-5.5
			c0.3-1,0.8-1.8,0.8-2.9c0-0.7-1.1-3-1.3-3.7c-0.7-2,0.4-2.7,2.3-3.1c6-1.2,9.8,2.5,13.4,3.1C283.1,131.9,284.1,132.4,284.9,133z"
			/>
	</g>
</g>
</svg>
